<svg xmlns="http://www.w3.org/2000/svg">

  <!-- header -->
  <symbol id="logo" viewBox="0 0 53 38">
    <g clip-path="url(#clip0)">
      <path d="M0 8.56477C0 6.10363 0.8 4.13472 2.4 2.46114C4.1 0.88601 6.1 0 8.6 0C11.2 0 13.2 0.689119 14.8 2.1658L13.6 3.93782C13 3.34715 12.2 2.95337 11.3 2.65803C10.4 2.36269 9.6 2.1658 8.7 2.1658C6.8 2.1658 5.3 2.75648 4.1 3.93782C3 5.21762 2.5 6.6943 2.5 8.56477C2.5 10.4352 3.1 12.0104 4.2 13.2902C5.4 14.5699 6.9 15.1606 8.8 15.1606C9.7 15.1606 10.7 14.9637 11.6 14.5699C12.5 14.1762 13.3 13.6839 14 12.9948L15.3 14.6684C13.5 16.4404 11.3 17.3264 8.7 17.3264C6.1 17.3264 4 16.5389 2.4 14.8653C0.8 13.0933 0 11.0259 0 8.56477Z"/>
      <path d="M18.3 17.0311V0.295334H20.6V7.58031H29.4V0.295334H31.8V16.9326H29.4V9.64767H20.6V16.9326H18.3V17.0311Z"/>
      <path d="M35.2 8.56477C35.2 6.20207 36 4.13472 37.7 2.46114C39.3 0.787565 41.4 0 43.9 0C46.4 0 48.5 0.787565 50.1 2.46114C51.8 4.13472 52.6 6.10363 52.6 8.56477C52.6 11.0259 51.8 13.0933 50.1 14.7668C48.4 16.4404 46.4 17.3264 43.9 17.3264C41.4 17.3264 39.3 16.4404 37.7 14.7668C36 13.0933 35.2 11.0259 35.2 8.56477ZM37.7 8.56477C37.7 10.4352 38.3 12.0104 39.5 13.2902C40.7 14.5699 42.2 15.1606 44 15.1606C45.8 15.1606 47.3 14.5699 48.5 13.2902C49.7 12.0104 50.3 10.4352 50.3 8.56477C50.3 6.79275 49.7 5.21762 48.5 4.03627C47.3 2.85492 45.8 2.1658 44 2.1658C42.2 2.1658 40.7 2.75648 39.5 4.03627C38.2 5.21762 37.7 6.6943 37.7 8.56477Z"/>
      <path d="M0 29.2383C0 26.7772 0.8 24.8083 2.4 23.1347C4.1 21.5596 6.1 20.6736 8.6 20.6736C11.2 20.6736 13.2 21.3627 14.8 22.8394L13.6 24.6114C13 24.0207 12.2 23.6269 11.3 23.3316C10.4 23.0363 9.5 22.8394 8.7 22.8394C6.8 22.8394 5.3 23.43 4.1 24.6114C3 25.7927 2.4 27.3679 2.4 29.1399C2.4 31.0104 3 32.5855 4.1 33.8653C5.3 35.1451 6.8 35.7357 8.7 35.7357C9.6 35.7357 10.6 35.5389 11.5 35.1451C12.4 34.7513 13.2 34.2591 13.9 33.5699L15.2 35.2435C13.4 37.0155 11.2 37.9015 8.6 37.9015C6 37.9015 3.9 37.114 2.3 35.4404C0.8 33.7668 0 31.6995 0 29.2383Z" />
      <path d="M16.8 29.2383C16.8 26.7772 17.6 24.8083 19.2 23.1347C20.8 21.5596 22.9 20.6736 25.4 20.6736C28 20.6736 30 21.3627 31.6 22.8394L30.4 24.6114C29.8 24.0207 29 23.6269 28.1 23.3316C27.2 23.0363 26.3 22.8394 25.5 22.8394C23.6 22.8394 22.1 23.43 20.9 24.6114C19.8 25.7927 19.2 27.3679 19.2 29.1399C19.2 31.0104 19.8 32.5855 20.9 33.8653C22.1 35.1451 23.6 35.7357 25.5 35.7357C26.4 35.7357 27.4 35.5389 28.3 35.1451C29.2 34.7513 30 34.2591 30.7 33.5699L32 35.2435C30.2 37.0155 28 37.9015 25.4 37.9015C22.8 37.9015 20.7 37.114 19.1 35.4404C17.6 33.7668 16.8 31.6995 16.8 29.2383Z" />
      <path d="M33.6 29.2383C33.6 26.8756 34.4 24.8083 36.1 23.1347C37.7 21.4611 39.8 20.6736 42.3 20.6736C44.8 20.6736 46.9 21.4611 48.5 23.1347C50.1 24.8083 51 26.7772 51 29.2383C51 31.6995 50.2 33.7668 48.5 35.4404C46.8 37.114 44.8 38 42.3 38C39.8 38 37.7 37.114 36.1 35.4404C34.4 33.7668 33.6 31.6995 33.6 29.2383ZM36 29.2383C36 31.1088 36.6 32.6839 37.8 33.9637C39 35.2435 40.5 35.8342 42.3 35.8342C44.1 35.8342 45.6 35.2435 46.8 33.9637C48 32.6839 48.6 31.1088 48.6 29.2383C48.6 27.4663 48 25.8912 46.8 24.7098C45.6 23.5285 44.1 22.8394 42.3 22.8394C40.5 22.8394 39 23.43 37.8 24.7098C36.6 25.8912 36 27.3679 36 29.2383Z" />
    </g>
    <defs>
      <clipPath id="clip0">
        <rect width="52.6" height="38" />
      </clipPath>
    </defs>
  </symbol>

  <symbol id="phone" viewBox="0 0 14 15">
    <path d="M13.7455 13.0923C13.4909 13.5935 12.9818 13.8441 12.4727 14.0947C11.8364 14.4706 11.3273 14.5959 10.6909 14.5959C9.8 14.5959 8.90909 14.22 8.14545 13.9694C7.50909 13.7188 7 13.4682 6.36364 13.2176C4.58182 12.09 2.54545 10.0853 1.52727 8.45643C1.14545 7.82996 0.890909 7.32878 0.636364 6.70231C0.381818 5.82525 0 5.07349 0 4.07113C0 3.44466 0.127273 2.81819 0.509091 2.19172C0.763636 1.69054 1.01818 1.18936 1.52727 0.938771C1.90909 0.938771 2.54545 0.813477 2.92727 0.813477C3.05455 0.813477 3.05455 0.813477 3.18182 0.813477C3.43636 0.938771 3.56364 1.31465 3.69091 1.56524C3.94545 2.19172 4.32727 2.69289 4.58182 3.31936C4.83636 3.56995 5.09091 3.82054 5.09091 4.07113C5.09091 4.6976 3.30909 5.57466 3.30909 6.07584C3.30909 6.32643 3.56364 6.70231 3.69091 6.9529C4.70909 8.70702 5.98182 9.95997 7.76364 10.9623C8.01818 11.0876 8.4 11.3382 8.65455 11.3382C9.16364 11.3382 10.0545 9.58408 10.6909 9.58408C10.9455 9.58408 11.2 9.83467 11.4545 10.0853C11.9636 10.4611 12.6 10.7117 13.1091 11.0876C13.3636 11.2129 13.7455 11.3382 13.8727 11.5888C13.8727 11.7141 13.8727 11.7141 13.8727 11.8394C14 12.09 13.8727 12.7164 13.7455 13.0923Z" />
  </symbol>

<!-- hero -->
  <symbol id="belt" viewBox="0 0 37 37">
    <path d="M36.8031 16.1551C36.8031 13.7259 34.8597 11.7825 32.4306 11.7825H31.4589H10.0821C10.0821 11.7825 4.25207 12.0254 1.57998 7.41001C1.82289 4.00916 4.49499 1.57998 7.89584 1.57998H17.6126C21.2563 1.57998 23.9284 4.49499 23.9284 7.89584V9.11043H25.143V8.13876C25.143 3.76624 21.7422 0.365387 17.3696 0.365387H8.13876C3.76624 0.365387 0.365387 3.76624 0.365387 8.13876V11.2967V11.7825V19.5559C0.365387 23.9284 3.76624 27.3293 8.13876 27.3293H9.83919V26.1147H7.89584C4.25207 26.1147 1.57998 23.1997 1.57998 19.7988V11.7825V11.2967V9.59627C2.30873 10.5679 4.73791 12.9971 9.83919 12.9971C17.1267 12.9971 31.216 12.9971 31.216 12.9971H32.4306C34.131 12.9971 35.3456 14.2117 35.3456 15.9121V17.3696V17.8555C35.3456 19.5559 34.131 20.7705 32.4306 20.7705H32.1876H16.8838C14.4546 20.7705 12.5113 22.7138 12.5113 25.143V31.7018C12.5113 34.131 14.4546 36.0743 16.8838 36.0743H32.4306C34.8597 36.0743 36.8031 34.131 36.8031 31.7018V25.143C36.8031 25.143 36.8031 19.313 36.8031 17.6126C36.8031 17.6126 36.8031 17.6126 36.8031 17.3696V16.1551ZM35.3456 32.1876C35.3456 33.8881 34.131 35.1027 32.4306 35.1027H16.6409C14.9405 35.1027 13.7259 33.8881 13.7259 32.1876V25.143C13.7259 23.4426 14.9405 22.228 16.6409 22.228H21.2563V26.3576H22.4709V22.228H28.058H30.2443V26.3576H31.4589V22.228H32.4306C33.6451 22.228 34.8597 21.7422 35.5885 21.0134V32.1876H35.3456Z" />
  </symbol>

  <symbol id="bullet" viewBox="0 0 39 37">
    <path d="M5.68662 22.4709C5.68662 22.9568 5.92954 23.4426 5.92954 23.9284C5.92954 25.8718 6.17246 29.0297 6.17246 29.0297H7.38704C7.38704 29.0297 7.38704 23.9284 6.65829 21.2563C5.92954 18.3413 5.68662 12.9971 7.38704 9.11043L6.17246 8.6246C6.17246 8.6246 4.71495 11.5396 4.71495 16.1551C4.71495 19.0701 4.95787 20.2847 5.20078 21.4992C4.22911 20.7705 1.55701 18.3413 1.79993 13.24C2.28577 7.41001 7.38704 2.06581 7.38704 2.06581C7.38704 2.06581 16.375 10.5679 8.35872 20.0417L9.33039 20.7705C9.33039 20.7705 12.9742 16.6409 12.9742 12.0254C12.9742 7.41001 11.0308 3.52332 7.38704 0.365387C7.38704 0.365387 1.07118 6.43834 0.585343 13.7259C0.342425 20.5276 5.4437 22.9568 5.4437 22.9568L5.68662 22.4709Z" />
    <path d="M18.3183 16.1551C9.33038 18.8272 9.81622 27.5722 10.0591 29.5156C6.9012 32.6735 5.4437 35.5885 5.4437 35.5885L6.41537 36.0743C15.6462 20.7705 29.9784 23.6855 29.9784 23.6855V22.4709C21.2334 21.4993 15.1604 24.9001 11.0308 28.301C10.7879 25.143 12.2454 17.6126 21.4763 16.8838C32.1647 16.6409 37.2659 22.9568 37.2659 22.9568C31.6788 31.9447 25.363 33.1593 21.4763 33.6452C17.3467 34.3739 12.2454 31.4589 12.2454 31.4589L11.7596 32.4306C11.7596 32.4306 16.1321 35.3456 21.7192 34.8597C33.8651 33.4022 38.4805 22.7138 38.4805 22.7138C37.2659 20.2847 28.278 13.7259 18.3183 16.1551Z" />
  </symbol>

  <symbol id="car" viewBox="0 0 40 32">
    <path d="M39.7406 24.3185V17.3936C39.7406 15.2296 38.875 14.364 38.875 14.364C38.875 14.364 36.711 11.5508 35.4126 9.81961C34.1142 8.08841 32.383 8.08841 32.383 8.08841H25.0254V7.0064C25.0254 5.49159 23.9434 4.40959 22.4285 4.40959H16.1529C14.6381 2.24558 12.0413 0.730774 9.22809 0.730774C4.46727 0.730774 0.788452 4.62599 0.788452 9.38681C0.788452 11.3344 1.43765 13.0656 2.51966 14.5804V24.1021C2.51966 25.6169 3.60166 26.6989 5.11647 26.6989H6.19848V26.9153C6.19848 29.5121 8.36249 31.6761 10.9593 31.6761C13.5561 31.6761 15.7201 29.5121 15.7201 26.9153C15.7201 26.6989 15.7201 26.6989 15.7201 26.6989H22.2121H22.4285C23.0777 26.6989 24.5926 26.6989 26.5402 26.6989V26.9153C26.5402 29.5121 28.7042 31.6761 31.301 31.6761C33.8978 31.6761 36.0618 29.5121 36.0618 26.9153C36.0618 26.6989 36.0618 26.6989 36.0618 26.6989C36.2782 26.6989 36.4946 26.6989 36.4946 26.6989C40.1734 26.9153 39.7406 24.3185 39.7406 24.3185ZM38.6586 16.7444C38.6586 16.7444 38.6586 16.9608 38.6586 17.3936H30.219C29.7862 17.3936 29.3534 16.9608 29.3534 16.528V13.0656C29.3534 12.6328 29.7862 12.2 30.219 12.2H35.8454C36.4946 12.8492 37.1438 13.7148 37.5766 14.364C38.6586 15.6624 38.6586 16.7444 38.6586 16.7444ZM9.22809 2.02918C13.3397 2.02918 16.8021 5.27519 16.8021 9.60321C16.8021 13.9312 13.3397 16.9608 9.22809 16.9608C5.11647 16.9608 1.87046 13.4984 1.87046 9.38681C1.87046 5.27519 5.11647 2.02918 9.22809 2.02918ZM10.7429 30.5941C8.79529 30.5941 7.28048 29.0793 7.28048 27.1317C7.28048 25.1841 8.79529 23.6693 10.7429 23.6693C12.6905 23.6693 14.2053 25.1841 14.2053 27.1317C14.2053 29.0793 12.6905 30.5941 10.7429 30.5941ZM15.0709 25.6169C14.4217 23.8857 12.6905 22.3709 10.7429 22.3709C8.79529 22.3709 7.06408 23.6693 6.41488 25.6169H4.90007C4.25087 25.6169 3.60166 24.9677 3.60166 24.3185V15.6624C5.11647 16.9608 7.06408 17.8264 9.22809 17.8264C13.9889 17.8264 17.6677 13.9312 17.6677 9.38681C17.6677 8.08841 17.2349 6.79 16.8021 5.708H22.4285C23.0777 5.708 23.7269 6.3572 23.7269 7.0064V24.3185C23.7269 24.9677 23.0777 25.6169 22.4285 25.6169H15.0709ZM31.0846 30.5941C29.137 30.5941 27.6222 29.0793 27.6222 27.1317C27.6222 25.1841 29.137 23.6693 31.0846 23.6693C33.0322 23.6693 34.547 25.1841 34.547 27.1317C34.547 29.0793 33.0322 30.5941 31.0846 30.5941ZM36.4946 25.8333H35.629C34.9798 23.8857 33.2486 22.5873 31.301 22.5873C29.137 22.5873 27.4058 23.8857 26.973 25.8333H24.809C25.2418 25.4005 25.4582 24.9677 25.4582 24.3185V8.95401C25.4582 8.95401 30.219 8.95401 32.1666 8.95401C34.1142 8.95401 34.9798 10.2524 34.9798 10.2524C34.9798 10.2524 34.7634 10.6852 35.1962 11.118H30.219C29.137 11.118 28.4878 11.9836 28.4878 12.8492V16.3116C28.4878 17.3936 29.3534 18.0428 30.219 18.0428H38.875C38.875 19.7741 38.875 22.3709 38.875 23.6693C38.6586 26.0497 36.4946 25.8333 36.4946 25.8333Z" />
  </symbol>

<!-- benefits -->
  <symbol id="man" viewBox="0 0 65 69">
    <path d="M60.03 19.665C60.72 18.975 61.41 18.285 61.755 17.595C64.17 14.49 63.825 13.11 61.41 11.04C58.995 8.97 55.2 12.075 55.2 12.075C55.2 12.075 54.855 12.42 54.51 12.765C50.715 9.315 45.885 6.555 40.365 5.175C38.295 2.07 35.19 0 31.74 0C27.945 0 24.84 2.415 22.77 5.52C18.285 6.9 14.145 9.315 10.695 12.42C10.005 12.075 8.625 10.695 6.9 10.35C4.485 10.005 2.07 11.73 1.725 14.145C1.725 15.525 3.105 17.595 4.83 19.665C1.725 24.495 0 30.015 0 36.225C0 53.82 14.49 68.31 32.43 68.31C38.64 68.31 44.85 66.585 49.68 63.48L48.645 61.065C44.16 49.68 45.195 42.435 45.54 38.985C46.575 35.19 50.37 30.015 52.44 27.255C53.82 25.53 55.89 23.805 57.96 21.735C60.72 25.875 62.1 30.705 62.1 36.225C62.1 44.16 58.65 51.405 53.475 56.925L55.545 58.65C61.41 52.785 64.86 44.85 64.86 36.225C64.86 30.015 63.135 24.495 60.03 19.665ZM31.74 2.76C36.225 2.76 39.675 6.9 39.675 12.075C39.675 17.25 36.225 21.39 31.74 21.39C27.255 21.39 23.805 17.595 23.805 12.075C23.805 6.555 27.255 2.76 31.74 2.76ZM31.74 24.15C37.605 24.15 42.435 18.63 42.435 12.075C42.435 10.695 42.09 9.66 41.745 8.28C45.885 9.66 49.335 11.73 52.44 14.49C49.68 16.905 45.54 20.01 43.47 21.39C40.365 23.805 35.19 26.22 31.05 26.22C26.91 26.22 24.84 24.495 21.735 23.115C18.975 21.735 14.49 16.56 12.42 14.49C15.18 12.075 18.285 10.35 21.39 8.97C21.39 10.005 21.045 11.04 21.045 12.075C21.045 18.975 25.875 24.15 31.74 24.15ZM2.76 36.225C2.76 31.05 4.14 26.22 6.555 21.735C7.245 22.425 7.59 22.77 7.59 22.77C7.59 22.77 16.215 32.775 17.94 35.19C19.665 37.605 17.595 39.33 16.215 45.54C15.18 50.37 15.18 56.925 15.18 60.03C7.59 54.51 2.76 45.885 2.76 36.225ZM56.235 19.665C54.855 21.045 50.025 25.185 45.885 31.74C41.745 38.295 42.435 43.47 42.78 47.265C43.125 51.06 44.16 54.51 44.505 55.89C44.85 56.925 46.23 60.72 46.575 61.755C42.435 63.825 37.605 65.205 32.775 65.205C27.255 65.205 22.425 63.825 17.94 61.41C17.94 49.68 18.63 47.955 18.975 46.23C18.975 44.505 20.01 41.055 21.045 38.295C21.735 35.88 20.7 33.81 19.665 32.775C18.63 31.74 8.625 19.665 6.9 17.25C4.83 14.835 4.485 13.8 6.21 13.11C7.935 12.075 12.42 17.595 14.49 20.01C16.215 22.425 24.15 28.98 31.395 28.635C38.64 28.29 43.815 24.495 45.885 23.115C47.61 21.735 56.58 14.49 57.96 13.455C59.34 12.42 61.065 13.455 60.72 14.49C60.375 15.525 57.615 18.285 56.235 19.665Z" />
  </symbol>

  <symbol id="smile" viewBox="0 0 68 68">
    <path d="M34 2C16.4314 2 2 16.4314 2 34C2 51.5686 16.4314 66 34 66C51.5686 66 66 51.5686 66 34C66 16.4314 51.5686 2 34 2ZM34 63.4902C17.6863 63.4902 4.5098 50.3137 4.5098 34C4.5098 17.6863 17.6863 4.5098 34 4.5098C50.3137 4.5098 63.4902 17.6863 63.4902 34C63.4902 50.3137 50.3137 63.4902 34 63.4902Z" />
    <path d="M34 50.6275C23.0196 50.6275 16.4314 40.902 16.4314 40.902L14.2353 42.4706C23.0196 53.7647 34 53.451 34 53.451C34 53.451 44.9804 54.0785 53.7647 42.4706L51.5686 40.902C51.5686 40.902 44.9804 50.6275 34 50.6275Z" />
    <path d="M23.3333 37.451C30.8627 34 32.1176 29.6078 32.1176 27.4118C32.1176 24.902 30.549 22.0784 27.7255 22.0784C24.5882 22.0784 23.3333 23.6471 23.3333 23.6471C23.3333 23.6471 22.0784 22.0784 18.9412 22.0784C16.1176 22.0784 14.549 25.2157 14.549 27.4118C14.549 29.6078 15.8039 34 23.3333 37.451ZM23.3333 26.7843C24.902 24.2745 29.2941 23.9608 29.6078 27.098C29.6078 31.4902 23.3333 34.6275 23.3333 34.6275C23.3333 34.6275 17.0588 31.4902 17.0588 27.098C17.3725 23.9608 21.7647 24.2745 23.3333 26.7843Z"/>
    <path d="M44.6667 37.451C52.1961 34 53.451 29.6078 53.451 27.7255C53.451 25.2157 51.8824 22.3922 49.0588 22.3922C45.9216 22.3922 44.6667 23.9608 44.6667 23.9608C44.6667 23.9608 43.4118 22.3922 40.2745 22.3922C37.451 22.3922 35.8824 25.5294 35.8824 27.7255C35.8824 29.6078 37.1373 34 44.6667 37.451ZM44.6667 26.7843C46.2353 24.2745 50.6274 23.9608 50.9412 27.098C50.9412 31.4902 44.6667 34.6274 44.6667 34.6274C44.6667 34.6274 38.3922 31.4902 38.3922 27.098C38.7059 23.9608 43.098 24.2745 44.6667 26.7843Z"/>
  </symbol>

  <symbol id="arm" viewBox="0 0 64 54">
    <path d="M49.9372 8.44973C43.9103 8.44973 36.1614 12.7547 36.4484 21.6515C36.4484 21.6515 24.6816 17.9206 21.2377 30.2614C21.2377 30.2614 19.2287 25.9565 16.6457 23.9475C13.7758 21.9385 10.3318 16.7726 10.0448 14.1896C10.3318 12.7547 10.6188 12.7547 11.1928 12.4677C11.4798 12.4677 11.4798 14.7636 14.0628 15.0506C16.3587 14.7636 16.9327 14.1896 17.7937 13.0417L20.3767 10.1717C20.3767 10.1717 22.9596 6.72776 20.6637 5.00578C18.6547 2.99681 14.9238 -0.734128 10.3318 0.126858C7.74888 0.700849 5.73991 2.70982 5.73991 2.70982L2.29596 5.86677C2.29596 5.86677 0 8.16273 0 12.7547C0 16.7726 0.860987 23.3735 0.860987 23.3735C0.860987 23.3735 1.72197 28.5394 2.00897 30.2614C2.29596 31.9834 4.59193 42.0282 10.0448 47.4811C13.4888 51.4991 15.4978 53.221 17.2197 53.508C20.0897 53.508 21.5247 51.7861 23.8206 51.7861C26.1166 51.7861 28.4126 53.508 33.2915 53.508C38.1704 53.508 49.0762 50.6381 53.6682 36.5753C57.9731 34.8533 64 31.6964 64 22.2255C64 12.7547 55.6771 8.44973 49.9372 8.44973ZM51.9462 34.8533C48.7892 47.4811 38.7444 50.9251 33.8655 51.4991C29.2735 51.4991 26.6906 49.7771 23.2466 49.7771C21.2377 49.7771 18.3677 51.4991 17.5067 51.4991C16.6457 51.4991 14.3498 49.4901 11.4798 46.3331C8.60987 43.1762 7.46188 40.3062 6.3139 38.0103C5.16592 35.7143 3.15695 26.5304 3.15695 26.5304C3.15695 26.5304 2.29596 17.3466 2.29596 13.3287C2.29596 9.59771 4.01794 7.30175 4.01794 7.30175C4.01794 7.30175 6.3139 5.29278 8.60987 3.28381C11.1928 1.27484 14.3498 2.70982 14.3498 2.70982C14.3498 2.70982 17.5067 4.71879 18.6547 5.86677C20.0897 7.01475 18.6547 8.16273 18.6547 8.16273C18.6547 8.16273 15.4978 12.1807 14.3498 12.4677C12.9148 12.7547 12.6278 9.31072 12.6278 9.31072C11.1928 9.88471 8.89686 10.4587 8.03587 13.0417C7.17489 16.1986 11.7668 22.7995 15.2108 25.9565C18.3677 29.1134 20.3767 34.2793 20.3767 34.2793L22.9596 33.4183C22.9596 33.4183 22.6726 27.3914 27.8386 24.2345C33.5785 21.0775 38.7444 25.3825 38.7444 25.3825C37.0224 11.0327 49.6502 10.7457 50.5112 10.7457C51.3722 10.7457 61.417 11.6067 62.278 21.6515C61.704 33.1313 51.9462 34.8533 51.9462 34.8533Z" />
  </symbol>

  <!-- form -->
  <symbol id="check" viewBox="0 0 10 8">
    <path d="M9.44954 0.551587C8.80734 -0.184046 7.70642 -0.184046 7.06422 0.459633L3.66973 3.86193L2.93578 3.1263C2.29358 2.48262 1.19266 2.48262 0.550461 3.1263H0.458717C-0.183484 3.76998 -0.183484 4.87343 0.458717 5.5171L2.47707 7.54009C2.84404 7.90791 3.30275 7.99986 3.66973 7.99986C4.12844 7.99986 4.49542 7.81595 4.86239 7.54009L9.44954 2.94239C10.0917 2.29871 10.0917 1.19526 9.44954 0.551587Z"/>
  </symbol>

<!-- socials -->
  <symbol id="facebook" viewBox="0 0 20 20">
    <path d="M20 18.9101C20 19.5095 19.5095 20 18.9101 20H13.7875V12.2616H16.4033L16.7847 9.26431H13.7875V7.35695C13.7875 6.48501 14.0054 5.88556 15.2589 5.88556H16.8392V3.16076C16.5668 3.10627 15.6403 3.05177 14.4959 3.05177C12.2071 3.05177 10.6267 4.46866 10.6267 7.02997V9.26431H8.0109V12.2616H10.6267V20H1.08992C0.490463 20 0 19.5095 0 18.9101V1.08992C0 0.490463 0.490463 0 1.08992 0H18.9101C19.5095 0 20 0.490463 20 1.08992V18.9101Z" />
  </symbol>

  <symbol id="inst" viewBox="0 0 20 20">
    <path d="M17.6022 0H2.39782C1.08992 0 0 1.03542 0 2.34332V17.6567C0 18.9646 1.08992 20 2.39782 20H17.6022C18.9101 20 20 18.9646 20 17.6567V2.34332C20 1.03542 18.9101 0 17.6022 0ZM14.3869 3.10627C14.3869 2.77929 14.6594 2.50681 14.9864 2.50681H16.8937C17.2207 2.50681 17.4932 2.77929 17.4932 3.10627V4.95913C17.4932 5.2861 17.2207 5.55858 16.8937 5.55858H15.0409C14.7139 5.55858 14.4414 5.2861 14.4414 4.95913L14.3869 3.10627ZM10.0272 6.15804C12.1526 6.15804 13.8965 7.84741 13.8965 9.97275C13.8965 12.0981 12.1526 13.7875 10.0272 13.7875C7.90191 13.7875 6.15804 12.0981 6.15804 9.97275C6.15804 7.90191 7.90191 6.15804 10.0272 6.15804ZM18.0926 17.4932C18.0926 17.8202 17.8202 18.0926 17.4932 18.0926H2.50681C2.17984 18.0926 1.90736 17.8202 1.90736 17.4932V8.11989H4.35967C4.0327 8.61035 3.92371 9.48229 3.92371 10.0272C3.92371 13.3515 6.6485 16.0763 10.0272 16.0763C13.406 16.0763 16.1308 13.3515 16.1308 10.0272C16.1308 9.48229 16.0763 8.61035 15.6403 8.11989H18.1471L18.0926 17.4932Z"/>
  </symbol>

  <symbol id="twitter" viewBox="0 0 20 20">
    <g clip-path="url(#clip1)">
      <path d="M19.455 2.01613C18.6376 2.5066 17.7657 2.83357 16.8392 3.05155C16.0763 2.23412 15.0409 1.74365 13.842 1.74365C11.5531 1.74365 9.75477 3.65101 9.75477 5.93984C9.75477 6.26681 9.80926 6.59379 9.86376 6.92076C6.43052 6.70278 3.43324 5.01341 1.41689 2.4521C1.08992 3.05155 0.871935 3.8145 0.871935 4.57744C0.871935 6.04883 1.58038 7.30224 2.7248 8.06518C2.07084 8.06518 1.41689 7.84719 0.871935 7.52022V7.62921C0.871935 9.64556 2.28883 11.3894 4.14169 11.7709C3.81471 11.8799 3.43324 11.9344 3.05177 11.9344C2.77929 11.9344 2.50681 11.9344 2.28883 11.8799C2.83379 13.5693 4.30518 14.7682 6.10354 14.8227C4.68665 15.9671 2.94278 16.621 0.980926 16.621C0.653951 16.621 0.326975 16.621 0 16.5665C1.79837 17.7654 3.9782 18.4739 6.26703 18.4739C13.842 18.4739 17.9292 12.0434 17.9292 6.4848C17.9292 6.32131 17.9292 6.10332 17.9292 5.93984C18.7466 5.34038 19.455 4.63194 20 3.76C19.2916 4.08698 18.4741 4.30496 17.6567 4.41395C18.4741 3.8145 19.1281 2.99706 19.455 2.01613Z" />
    </g>
    <defs>
      <clipPath id="clip1">
        <rect width="20" height="20" />
      </clipPath>
    </defs>
  </symbol>

  <symbol id="vk" viewBox="0 0 20 20">
    <path d="M19.891 10.6049C19.891 10.5504 19.8365 10.4959 19.8365 10.4959C19.5095 9.89646 18.8011 9.07902 17.8202 8.20708C17.3842 7.77112 17.1117 7.49864 17.0027 7.33515C16.7847 7.06267 16.7302 6.79019 16.8392 6.51771C16.9482 6.29973 17.2207 5.86376 17.7657 5.15531C18.0381 4.77384 18.2561 4.50136 18.4196 4.28338C19.6185 2.703 20.1635 1.66757 20 1.23161L19.9455 1.12261C19.891 0.959126 19.782 0.90463 19.6185 0.850135C19.455 0.795639 19.2371 0.795639 18.9646 0.850135H15.9673C15.9128 0.850135 15.8583 0.850135 15.7493 0.850135C15.6403 0.850135 15.6403 0.904631 15.6403 0.904631H15.5858L15.5313 0.959127C15.4768 0.959127 15.4768 1.01362 15.4223 1.06812C15.3678 1.12261 15.3678 1.17711 15.3134 1.23161C14.9864 2.04904 14.6049 2.86648 14.2234 3.57493C13.951 4.0109 13.733 4.39237 13.515 4.71934C13.297 5.04632 13.1335 5.2643 12.97 5.42779C12.8065 5.59128 12.6975 5.70027 12.5886 5.80926C12.4796 5.91825 12.3706 5.91825 12.3161 5.91825C12.2616 5.91825 12.2071 5.86376 12.1526 5.86376C12.0436 5.80926 11.9891 5.70027 11.9346 5.59128C11.8801 5.48229 11.8256 5.3733 11.8256 5.20981C11.8256 5.04632 11.7711 4.88283 11.7711 4.77384C11.7711 4.66485 11.7711 4.50136 11.7711 4.28338C11.7711 4.06539 11.7711 3.90191 11.7711 3.84741C11.7711 3.57493 11.7711 3.30245 11.7711 2.97548C11.7711 2.6485 11.7711 2.43052 11.7711 2.26703C11.7711 2.10354 11.7711 1.88556 11.7711 1.66757C11.7711 1.44959 11.7711 1.2861 11.7166 1.17711C11.7166 1.06812 11.6621 0.959126 11.6076 0.850135C11.5531 0.741143 11.4986 0.632151 11.3896 0.577655C11.2807 0.523159 11.1717 0.468664 11.0627 0.414168C10.6812 0.305176 10.2452 0.305176 9.64578 0.305176C8.33788 0.305176 7.52044 0.359671 7.13896 0.577655C6.97548 0.632151 6.86648 0.741143 6.75749 0.904631C6.6485 1.06812 6.59401 1.12261 6.703 1.17711C7.13896 1.23161 7.41144 1.39509 7.57493 1.61308L7.62943 1.72207C7.68392 1.83106 7.73842 1.99455 7.79292 2.21253C7.84741 2.43052 7.84741 2.703 7.90191 2.97548C7.9564 3.46594 7.9564 3.90191 7.90191 4.28338C7.84741 4.66485 7.84741 4.93733 7.79292 5.10082C7.73842 5.3188 7.73842 5.48229 7.62943 5.59128C7.57493 5.70027 7.52044 5.80926 7.52044 5.80926C7.52044 5.86376 7.46594 5.86376 7.46594 5.86376C7.35695 5.91825 7.30245 5.91825 7.19346 5.91825C7.08447 5.91825 6.97548 5.86376 6.86649 5.75477C6.703 5.64577 6.59401 5.53678 6.43052 5.3733C6.26703 5.20981 6.10354 4.99182 5.94005 4.66485C5.77657 4.33787 5.55858 4.0109 5.3406 3.57493L5.17711 3.24795C5.06812 3.02997 4.90463 2.75749 4.74114 2.37602C4.57766 1.99455 4.41417 1.66757 4.25068 1.2861C4.19619 1.17711 4.08719 1.06812 3.9782 0.959127H3.92371C3.86921 0.904631 3.81471 0.90463 3.76022 0.850135C3.70572 0.850135 3.59673 0.795639 3.54223 0.795639H0.708447C0.381471 0.795639 0.163488 0.904631 0.0544959 1.01362V1.06812C0 1.12261 0 1.17711 0 1.23161C0 1.2861 0 1.39509 0.0544959 1.50409C0.490463 2.48501 0.92643 3.41144 1.41689 4.33787C1.90736 5.2643 2.34332 5.97275 2.6703 6.51771C3.05177 7.06267 3.37875 7.60763 3.76022 8.09809C4.14169 8.58855 4.35967 8.91553 4.52316 9.02452C4.63215 9.18801 4.74114 9.2425 4.79564 9.3515L5.06812 9.62398C5.23161 9.78746 5.50409 10.0054 5.77657 10.2234C6.10354 10.4414 6.43052 10.6594 6.86649 10.9319C7.24796 11.1499 7.73842 11.3678 8.22888 11.4768C8.77384 11.6403 9.2643 11.6948 9.75477 11.6403H10.9537C11.1717 11.6403 11.3896 11.5313 11.4986 11.4223L11.5531 11.3678C11.6076 11.3133 11.6076 11.2589 11.6076 11.1499C11.6076 11.0409 11.6621 10.9864 11.6621 10.8774C11.6621 10.6049 11.6621 10.3324 11.7166 10.0599C11.7711 9.84196 11.8256 9.62398 11.8801 9.51498C11.9346 9.40599 12.0436 9.297 12.0981 9.18801C12.2071 9.07902 12.2616 9.07902 12.2616 9.02452C12.3161 9.02452 12.3161 8.97002 12.3706 8.97002C12.5341 8.91553 12.752 8.97003 12.97 9.13351C13.188 9.297 13.406 9.51498 13.624 9.73297C13.842 9.95095 14.0599 10.2234 14.3324 10.5504C14.6049 10.8229 14.8774 11.0954 15.0409 11.2044L15.2589 11.3133C15.4223 11.4223 15.5858 11.4768 15.8038 11.5313C16.0218 11.5858 16.2398 11.6403 16.4033 11.5858L19.0736 11.5313C19.346 11.5313 19.564 11.4768 19.673 11.4223C19.8365 11.3133 19.891 11.2589 19.9455 11.1499C20 11.0409 20 10.9319 19.9455 10.7684C19.9455 10.7684 19.9455 10.6594 19.891 10.6049Z"/>
  </symbol>

<!-- close menu -->
  <symbol id="close" viewBox="0 0 20 20">
  <g opacity="0.7" clip-path="url(#clip0)">
    <path d="M13.5556 10L19.3333 4.22222C20.2222 3.33333 20.2222 2 19.3333 1.22222L18.8889 0.777778C18 -0.111111 16.6667 -0.111111 15.8889 0.777778L10 6.44445L4.22222 0.666667C3.33333 -0.222222 2 -0.222222 1.11111 0.666667L0.666667 1.11111C-0.222222 2 -0.222222 3.33333 0.666667 4.11111L6.44445 10L0.666667 15.7778C-0.222222 16.6667 -0.222222 18 0.666667 18.7778L1.11111 19.3333C2 20.2222 3.33333 20.2222 4.11111 19.3333L10 13.5556L15.7778 19.3333C16.6667 20.2222 18 20.2222 18.7778 19.3333L19.2222 18.8889C20.1111 18 20.1111 16.6667 19.2222 15.8889L13.5556 10Z"/>
  </g>
  </symbol>
<!-- slider -->
  <symbol id="left" viewBox="0 0 24 40">
    <path d="M19 34L6.91422 21.9142C6.13317 21.1332 6.13317 19.8668 6.91421 19.0858L19 7" stroke="black" stroke-width="2" stroke-linecap="round"/>
  </symbol>

  <symbol id="right" viewBox="0 0 24 40">
    <path d="M5 6L17.0858 18.0858C17.8668 18.8668 17.8668 20.1332 17.0858 20.9142L5 33" stroke="black" stroke-width="2" stroke-linecap="round"/>
  </symbol>
<!-- compound -->
  <symbol id="compound" viewBox="0 0 46 46">
    <path d="M44.6903 7.1641L38.8069 1.27893C37.9858 0.457505 36.8943 0 35.7301 0C34.5659 0 33.4641 0.457505 32.6429 1.27893C31.7802 2.14195 31.3436 3.29611 31.3644 4.46067C30.2002 4.43987 29.0464 4.87658 28.1837 5.7396C27.3209 6.60262 26.8843 7.75678 26.9051 8.92134C25.7409 8.89015 24.5871 9.33725 23.7244 10.2003C22.8616 11.0633 22.425 12.2175 22.4458 13.382C21.2816 13.3612 20.1278 13.7979 19.2651 14.6609L4.71265 29.2179L0.315736 33.6162C0.191001 33.7306 0.0974494 33.8865 0.0454764 34.0529C0.0454764 34.0737 0.0350818 34.0841 0.0350818 34.1049C-0.0272858 34.344 -0.00649662 34.5832 0.0974494 34.7911C0.118239 34.8431 0.149422 34.8847 0.170212 34.9367C0.305341 35.1343 0.502839 35.2902 0.752309 35.363L4.31766 36.382L5.33633 39.9485C5.42988 40.2916 5.70014 40.5619 6.05355 40.6659L9.6189 41.6849L10.6376 45.2514C10.7103 45.5009 10.8663 45.6985 11.0741 45.8336C11.1157 45.8648 11.1573 45.8856 11.2093 45.9064C11.3444 45.9688 11.4899 46 11.6355 46C11.729 46 11.8226 45.9896 11.9265 45.9584C12.1136 45.9064 12.2695 45.8128 12.3943 45.6777L16.7912 41.2794L23.1007 34.9679C23.2254 35.0927 23.371 35.1759 23.5373 35.2278C23.9011 35.3318 24.2961 35.2382 24.5663 34.9679L32.0816 27.4503C32.487 27.0448 32.487 26.3897 32.0816 25.9842L31.9881 25.8906C32.4247 25.1731 32.6325 24.3517 32.6222 23.5303C33.7863 23.5511 34.9401 23.1144 35.8029 22.2514C36.6656 21.3883 37.1022 20.2342 37.0814 19.0696C38.2456 19.1008 39.3994 18.6537 40.2622 17.7907C41.1249 16.9277 41.5615 15.7735 41.5407 14.609C42.7049 14.6297 43.8587 14.193 44.7215 13.33C45.5426 12.5086 46 11.4064 46 10.2419C45.9688 9.0877 45.5218 7.98553 44.6903 7.1641ZM12.1344 42.9638L11.4484 40.5411C11.3548 40.198 11.0845 39.9277 10.7311 39.8237L7.16578 38.8151L6.14711 35.2486C6.05356 34.9055 5.7833 34.6352 5.42988 34.5312L3.00794 33.8449L5.42988 31.4222L14.5459 40.5411L12.1344 42.9638ZM24.4208 32.1501L21.9781 20.8476C21.8533 20.2862 21.3024 19.9326 20.7411 20.047C20.1798 20.1718 19.8264 20.7229 19.9407 21.2844L22.4043 32.6908L16.022 39.075L6.90591 29.9561L19.9927 16.8653L29.8468 26.7224L24.4208 32.1501ZM43.2246 11.8639C42.5282 12.5606 41.468 12.7373 40.5948 12.2902C40.1998 12.0927 39.7113 12.1655 39.3994 12.4878C39.0876 12.8101 39.0044 13.2884 39.2019 13.6835C39.6385 14.5674 39.4618 15.6279 38.7758 16.3142C38.0897 17.0005 37.0191 17.1876 36.1459 16.7405C35.7509 16.5429 35.2624 16.6157 34.9505 16.9381C34.6387 17.25 34.5555 17.7387 34.753 18.1338C35.1896 19.0176 35.0129 20.0782 34.3269 20.7645C33.6304 21.4611 32.5702 21.6379 31.697 21.1908C31.302 20.9932 30.8135 21.066 30.5017 21.3883C30.1898 21.7003 30.1067 22.189 30.3042 22.5841C30.5744 23.1352 30.616 23.7486 30.4289 24.3101L21.6662 15.5448C22.2276 15.368 22.8408 15.3992 23.3917 15.6695C23.7867 15.8671 24.2753 15.7943 24.5871 15.472C24.899 15.1496 24.9821 14.6713 24.7846 14.2762C24.348 13.3924 24.5248 12.3318 25.2108 11.6456C25.8968 10.9593 26.9675 10.7722 27.8406 11.2193C28.2356 11.4168 28.7242 11.344 29.036 11.0217C29.3479 10.7098 29.431 10.2211 29.2335 9.82595C28.7969 8.94213 28.9736 7.88155 29.6597 7.1953C30.3561 6.49864 31.4164 6.32188 32.2895 6.76899C32.6845 6.96655 33.1731 6.89376 33.4849 6.57143C33.7967 6.25949 33.8799 5.7708 33.6824 5.37568C33.2458 4.49186 33.4225 3.43128 34.1086 2.74503C34.5452 2.30832 35.1169 2.07957 35.7301 2.07957C36.3434 2.07957 36.9151 2.31872 37.3517 2.74503L43.2246 8.6302C43.6612 9.06691 43.8899 9.63879 43.8899 10.2523C43.8899 10.8553 43.6508 11.4376 43.2246 11.8639Z" />
  </symbol>

<symbol id="almond" viewBox="0 0 24 24">
  <path d="M11.268 19.194C11.0196 19.119 10.7571 19.2597 10.6868 19.5081C10.0634 21.5986 8.09948 23.061 5.91524 23.061C3.16855 23.0563 0.937439 20.8252 0.937439 18.0832C0.937439 14.4037 2.23111 10.818 4.58408 7.98695L5.37621 7.03545C5.50746 6.87608 5.70432 6.78234 5.91056 6.78234C6.11679 6.78234 6.31365 6.87608 6.4449 7.03545L7.23703 7.98695C9.03223 10.1477 10.2228 12.7538 10.6774 15.524C10.7196 15.7771 10.9587 15.9505 11.2165 15.9083C11.4696 15.8661 11.643 15.6271 11.6008 15.3693C11.118 12.4351 9.85718 9.67434 7.95886 7.38699L7.17141 6.4308C6.86206 6.05582 6.40271 5.84021 5.91524 5.84021C5.42777 5.84021 4.96843 6.05582 4.65907 6.4308L3.86694 7.3823C1.37335 10.3821 0 14.1834 0 18.0832C0 21.3455 2.65295 23.9984 5.91524 23.9984C7.2136 23.9984 8.44633 23.5859 9.4822 22.8032C10.4806 22.0485 11.2305 20.9705 11.5868 19.7799C11.6571 19.5268 11.5164 19.2643 11.268 19.194Z" />
  <path d="M5.69025 11.8539C5.46058 11.9758 5.37621 12.2617 5.49808 12.4867C6.27146 13.9257 6.74487 15.5474 6.87143 17.1739C6.89017 17.4176 7.09641 17.6051 7.34015 17.6051C7.35421 17.6051 7.36358 17.6051 7.37764 17.6051C7.63544 17.5864 7.82761 17.3614 7.80886 17.1036C7.67294 15.3224 7.17141 13.621 6.32771 12.0461C6.20584 11.8164 5.91992 11.732 5.69025 11.8539Z" />
  <path d="M5.9153 20.0144C6.1731 20.0144 6.38402 19.8035 6.38402 19.5457C6.38402 19.2879 6.1731 19.077 5.9153 19.077C5.3669 19.077 4.91693 18.6317 4.91693 18.0786C4.91693 17.4927 4.95912 16.9021 5.04817 16.3256C5.08567 16.0678 4.91224 15.8287 4.65445 15.7912C4.39665 15.7537 4.15761 15.9272 4.12011 16.1849C4.02636 16.8083 3.97949 17.4458 3.97949 18.0786C3.97949 19.1473 4.84662 20.0144 5.9153 20.0144Z"  />
  <path d="M5.91525 22.0064C8.08074 22.0064 9.83844 20.244 9.83844 18.0832C9.83844 17.8254 9.62751 17.6145 9.36972 17.6145C9.11192 17.6145 8.901 17.8254 8.901 18.0832C8.901 19.7284 7.56046 21.069 5.91525 21.069C5.65746 21.069 5.44653 21.2799 5.44653 21.5377C5.44653 21.7955 5.65746 22.0064 5.91525 22.0064Z"  />
  <path d="M8.97134 15.2053C9.00884 15.2053 9.04634 15.2006 9.08384 15.1912C9.33694 15.1303 9.49162 14.8772 9.43069 14.6241C9.10727 13.2835 8.59637 11.9946 7.91672 10.7946C7.79017 10.5697 7.50425 10.49 7.27926 10.6165C7.05428 10.7431 6.9746 11.029 7.10115 11.254C7.73861 12.3789 8.2167 13.5835 8.52137 14.8397C8.56824 15.06 8.76042 15.2053 8.97134 15.2053Z"  />
  <path d="M4.11056 11.4039C3.8762 11.2914 3.59965 11.3851 3.48247 11.6195C2.50754 13.6256 1.99194 15.8567 1.99194 18.0785C1.99194 18.3363 2.20287 18.5472 2.46066 18.5472C2.71846 18.5472 2.92938 18.3363 2.92938 18.0785C2.92938 15.9973 3.41216 13.9069 4.32617 12.032C4.43866 11.7976 4.34023 11.5211 4.11056 11.4039Z"  />
  <path d="M23.9938 13.2601L23.8813 12.0273C23.525 8.14635 21.8095 4.49033 19.0534 1.72958C16.7473 -0.576525 12.9976 -0.576525 10.6915 1.72958C8.38539 4.03568 8.38539 7.78543 10.6915 10.0915C13.4476 12.8476 17.1036 14.5631 20.9893 14.924L22.222 15.0365C22.2736 15.0412 22.3251 15.0412 22.372 15.0412C22.8032 15.0412 23.2157 14.8725 23.525 14.5631C23.8625 14.221 24.0359 13.7429 23.9938 13.2601ZM22.8548 13.9022C22.7095 14.0475 22.5032 14.1225 22.297 14.1038L21.0643 13.9913C17.3989 13.6538 13.9491 12.032 11.3477 9.43064C9.4072 7.49014 9.4072 4.33097 11.3477 2.39047C12.2898 1.44834 13.5366 0.932752 14.8678 0.932752C16.1989 0.932752 17.4457 1.44834 18.3879 2.39047C20.9893 4.99187 22.611 8.44633 22.9485 12.107L23.061 13.3398C23.0751 13.5507 23.0048 13.7569 22.8548 13.9022Z"  />
  <path d="M14.8632 4.91686C15.1304 4.91686 15.3788 5.01998 15.5663 5.20746C15.9787 5.61994 16.3678 6.06991 16.7146 6.53863C16.8084 6.66518 16.949 6.7308 17.0943 6.7308C17.1927 6.7308 17.2865 6.70268 17.3708 6.63706C17.5771 6.48238 17.6239 6.19178 17.4693 5.98085C17.0943 5.46995 16.6771 4.98717 16.2318 4.54188C15.8662 4.17628 15.3835 3.97473 14.8632 3.97473C14.3476 3.97473 13.8601 4.17628 13.4945 4.54188C13.3117 4.72468 13.3117 5.01998 13.4945 5.20278C13.6773 5.38558 13.9726 5.38558 14.1554 5.20278C14.3476 5.01998 14.6007 4.91686 14.8632 4.91686Z"  />
  <path d="M19.1144 9.57599C17.5489 9.10258 16.0678 8.2917 14.8257 7.23239C14.6288 7.06365 14.3335 7.08709 14.1648 7.28395C13.996 7.48081 14.0195 7.7761 14.2163 7.94484C15.5709 9.10727 17.1271 9.95565 18.8426 10.4759C18.8895 10.49 18.9316 10.4947 18.9785 10.4947C19.1801 10.4947 19.3676 10.3634 19.4285 10.1619C19.4988 9.90878 19.3582 9.65098 19.1144 9.57599Z"  />
  <path d="M17.6378 3.13576C17.455 2.95296 17.1597 2.95296 16.9769 3.13576C16.7941 3.31856 16.7941 3.61385 16.9769 3.79665C18.4487 5.26843 19.583 7.08706 20.2674 9.06037C20.333 9.25255 20.5158 9.37442 20.7126 9.37442C20.7642 9.37442 20.8158 9.36504 20.8673 9.34629C21.1111 9.26192 21.2423 8.99475 21.1579 8.75102C20.4267 6.65116 19.2127 4.70597 17.6378 3.13576Z"  />
  <path d="M18.8565 11.5726C17.6097 11.2305 16.4192 10.7149 15.3177 10.0399C15.0974 9.90401 14.8068 9.97431 14.6756 10.1946C14.5396 10.4149 14.6099 10.7055 14.8302 10.8368C16.0067 11.5586 17.2816 12.107 18.6081 12.4726C18.6503 12.482 18.6925 12.4913 18.7347 12.4913C18.9409 12.4913 19.1284 12.3554 19.1846 12.1492C19.2503 11.8961 19.105 11.6383 18.8565 11.5726Z"  />
  <path d="M12.7539 3.13576C12.5711 2.95296 12.2758 2.95296 12.093 3.13576C10.565 4.66378 10.565 7.15737 12.093 8.6854C12.1868 8.77914 12.304 8.82133 12.4258 8.82133C12.5477 8.82133 12.6649 8.77446 12.7586 8.6854C12.9414 8.5026 12.9414 8.2073 12.7586 8.0245C11.5962 6.86208 11.5962 4.96376 12.7586 3.80134C12.9367 3.61854 12.9367 3.31856 12.7539 3.13576Z"  />
  <path d="M11.3525 17.0754C11.2306 17.0754 11.1088 17.127 11.0197 17.2114C10.9307 17.3004 10.8838 17.4176 10.8838 17.5442C10.8838 17.666 10.9353 17.7879 11.0197 17.877C11.1088 17.966 11.226 18.0129 11.3525 18.0129C11.4791 18.0129 11.5962 17.9613 11.6853 17.877C11.7744 17.7879 11.8212 17.6707 11.8212 17.5442C11.8212 17.4176 11.7697 17.3004 11.6853 17.2114C11.5962 17.1223 11.4744 17.0754 11.3525 17.0754Z"  />
</symbol>

<symbol id="apitherapy" viewBox="0 0 24 25">
  <path d="M0.18761 21.5505C3.66777 23.7268 3.43795 23.6142 3.60211 23.6142C3.76627 23.6142 3.5599 23.708 6.80555 21.6865C10.0559 23.7174 9.84952 23.6142 10.009 23.6142C10.1685 23.6142 10.009 23.6846 12.6261 22.0477C12.8138 21.9304 12.87 21.6818 12.7528 21.4942C12.6355 21.3066 12.3869 21.2503 12.1993 21.3676L10.0043 22.7418L7.20422 20.9924V18.2345L8.66758 17.3199C8.85519 17.2027 8.91147 16.9541 8.79422 16.7665C8.67696 16.5789 8.42838 16.5226 8.24077 16.6398L6.80555 17.5404L4.00547 15.7909V13.033L6.80555 11.2836C8.3674 12.2591 8.26422 12.2122 8.37678 12.231C8.56439 12.2638 8.752 12.1653 8.82236 11.9871C8.89271 11.8089 8.82705 11.6072 8.66758 11.504L7.20422 10.5894V7.83154L10.0043 6.08208L12.8044 7.83154V8.40844C12.8044 8.62888 12.9826 8.80711 13.203 8.80711C13.4235 8.80711 13.6017 8.62888 13.6017 8.40844V7.83154L16.4018 6.08208L19.2019 7.83154V10.8098C19.2019 11.0303 19.3801 11.2085 19.6005 11.2085C19.821 11.2085 19.9992 11.0303 19.9992 10.8098V7.60641C19.9992 7.47039 19.9289 7.33907 19.8116 7.26871L16.7958 5.38323V2.40023C16.7958 2.26422 16.7254 2.13289 16.6082 2.06254L13.4188 0.0598007C13.2875 -0.0199336 13.1233 -0.0199336 12.9967 0.0598007L10.009 1.92652L7.01661 0.0598007C6.88528 -0.0199336 6.72113 -0.0199336 6.59449 0.0598007L3.39105 2.06254C3.27379 2.13758 3.20344 2.26422 3.20344 2.40023V5.37854L0.18761 7.26402C0.0703537 7.33907 0 7.4657 0 7.60172V10.8052C0 10.9412 0.0703537 11.0725 0.18761 11.1429L3.20344 13.0283V15.7862L0.18761 17.6717C0.0703537 17.7467 0 17.8734 0 18.0094V21.2128C0 21.3488 0.0703537 21.4755 0.18761 21.5505ZM13.2077 0.871214L16.0078 2.62068V5.37854L13.2077 7.12801L10.4077 5.37854V2.62068L13.2077 0.871214ZM6.80555 0.871214L9.60563 2.62068V5.37854L6.80555 7.12801L4.00547 5.37854V2.62068L6.80555 0.871214ZM0.802032 7.82685L3.60211 6.07739L6.40219 7.82685V10.5847L3.60211 12.3342L0.802032 10.5847V7.82685ZM0.802032 18.2298L3.60211 16.4804L6.40219 18.2298V20.9877L3.60211 22.7372L0.802032 20.9877V18.2298Z"  />
  <path d="M18.4092 12.0105V11.6072C18.4092 10.9083 18.0996 10.2423 17.5696 9.78265L17.9683 8.98062C18.0668 8.78363 17.9824 8.54443 17.7854 8.44593C17.5884 8.34744 17.3492 8.42717 17.2507 8.62416L16.8802 9.36991C16.322 9.14947 15.6982 9.14947 15.1354 9.36991L14.7649 8.62416C14.7039 8.49283 14.5726 8.40841 14.4318 8.39903C14.2864 8.38965 14.1504 8.46 14.0707 8.57726C13.991 8.6992 13.9816 8.84929 14.0472 8.98062L14.4459 9.78265C13.9112 10.2376 13.6017 10.9036 13.6017 11.6072V12.0105C13.2358 12.0058 12.8419 12.0058 12.401 12.0058C10.2763 12.0058 7.99683 12.972 7.99683 14.4072C7.99683 16.1332 11.2472 17.0385 12.8653 16.7664C12.8278 17.0854 12.7996 17.5216 12.7996 17.8124C12.7996 20.6124 14.0003 22.8497 15.5997 23.1733V23.6189C15.5997 23.8393 15.7779 24.0176 15.9984 24.0176C16.2188 24.0176 16.3971 23.8393 16.3971 23.6189V23.1686C17.9964 22.845 19.1971 20.6077 19.1971 17.8077C19.1971 17.5216 19.169 17.0807 19.1315 16.7664C20.7684 17.0385 24 16.1239 24 14.4072C24 12.972 21.7252 12.0058 19.5958 12.0058C19.1924 12.0058 18.7844 12.0058 18.4092 12.0105ZM14.4084 11.6072C14.4084 10.7207 15.126 10.0078 16.0078 10.0078C16.8942 10.0078 17.6071 10.7254 17.6071 11.6072V12.0293C17.0678 12.0199 16.5237 12.0996 16.0078 12.2591C15.4918 12.0903 14.9478 12.0152 14.4037 12.0293V11.6072H14.4084ZM16.0125 14.1587C16.2001 14.5339 16.4299 14.8856 16.7019 15.2046H15.3183C15.5856 14.8856 15.8202 14.5339 16.0125 14.1587ZM8.80355 14.4072C8.80355 13.6849 10.4639 12.8079 12.4057 12.8079C13.2077 12.8079 15.0979 12.7938 15.595 12.9533C15.459 13.9148 14.0613 16.0113 12.4057 16.0113C10.4686 16.0066 8.80355 15.1295 8.80355 14.4072ZM14.4928 16.0066H17.518C17.7619 16.1989 18.0246 16.3631 18.3013 16.4991C18.3154 16.6023 18.3294 16.7055 18.3435 16.8086H15.6091C15.3887 16.8086 15.2104 16.9869 15.2104 17.2073C15.2104 17.4278 15.3887 17.606 15.6091 17.606H18.3998C18.4186 17.8733 18.4139 18.1407 18.3857 18.408H13.6298C13.6017 18.1407 13.597 17.8733 13.6157 17.606H14.005C14.2255 17.606 14.4037 17.4278 14.4037 17.2073C14.4037 16.9869 14.2255 16.8086 14.005 16.8086H13.672C13.6861 16.7008 13.7002 16.5976 13.7142 16.4897C13.9957 16.3584 14.2536 16.1989 14.4928 16.0066ZM14.2067 20.8094H16.0078C16.2282 20.8094 16.4064 20.6312 16.4064 20.4108C16.4064 20.1903 16.2282 20.0121 16.0078 20.0121H13.9112C13.8362 19.7494 13.7752 19.4821 13.7283 19.21H18.2919C18.245 19.4821 18.184 19.7494 18.109 20.0121H17.6118C17.3914 20.0121 17.2132 20.1903 17.2132 20.4108C17.2132 20.6312 17.3914 20.8094 17.6118 20.8094H17.8135C16.8379 22.9435 15.1823 22.9435 14.2067 20.8094ZM23.212 14.4072C23.212 15.4016 20.2384 16.4053 18.8125 15.8518C17.6212 15.289 16.7441 14.229 16.4205 12.9533C16.9974 12.7797 18.7281 12.8079 19.6099 12.8032C21.5516 12.8079 23.212 13.6849 23.212 14.4072Z"  />
</symbol>

<symbol id="beans" viewBox="0 0 24 19">
  <path d="M11.3672 3.05625C11.2031 2.85 10.9031 2.81719 10.6969 2.98125C10.4484 3.17813 10.1531 3.28594 9.83438 3.28594C9.51563 3.28594 9.22032 3.18282 8.97188 2.98125C8.76563 2.81719 8.46563 2.85 8.30157 3.05625C8.1375 3.2625 8.17032 3.5625 8.37657 3.72656C8.78907 4.05938 9.30938 4.2375 9.83907 4.2375C10.3688 4.2375 10.8891 4.05469 11.3016 3.72656C11.4984 3.5625 11.5313 3.2625 11.3672 3.05625Z"  />
  <path d="M23.6532 9.80156C23.2688 8.74688 22.6032 7.84219 21.7267 7.18594C21.1032 6.72188 20.3954 6.40313 19.6313 6.23906C19.7954 4.73438 19.3267 3.17344 18.347 1.9875C17.2876 0.707813 15.7642 0 14.0579 0H13.7813C12.586 0 11.4282 0.421875 10.4298 1.22344C10.2563 1.35938 10.0501 1.43438 9.82979 1.43438C9.60947 1.43438 9.40322 1.35938 9.22978 1.22344C8.23604 0.421875 7.07822 0 5.88291 0H5.60635C4.37354 0 3.22041 0.375 2.27354 1.07813C1.39229 1.73438 0.726665 2.63438 0.346978 3.69375C-0.0327093 4.74375 -0.103022 5.85938 0.154791 6.91875C0.426665 8.0625 1.06885 9.07969 2.01104 9.86719C2.72823 10.4672 3.51573 10.9828 4.3501 11.4C4.31729 11.9484 4.36416 12.4922 4.49073 13.0266C4.7626 14.1703 5.40479 15.1875 6.34697 15.975C8.53604 17.8031 11.3157 18.8063 14.1704 18.8063C17.0251 18.8063 19.8048 17.7984 21.9938 15.975C22.936 15.1875 23.5782 14.1703 23.8501 13.0266C24.1032 11.9672 24.0376 10.8516 23.6532 9.80156ZM4.5001 10.4016C3.83448 10.0453 3.20635 9.61875 2.62041 9.13125C0.79229 7.60781 0.712603 5.48906 1.24229 4.01719C1.77666 2.53594 3.20635 0.95625 5.60166 0.95625H5.87822C6.85322 0.95625 7.80479 1.30781 8.62979 1.96875C8.96729 2.24063 9.39385 2.39063 9.8251 2.39063C10.2563 2.39063 10.6829 2.24063 11.0204 1.96875C11.8454 1.30313 12.797 0.95625 13.772 0.95625H14.0485C15.4642 0.95625 16.7251 1.5375 17.6017 2.59688C18.4173 3.58125 18.8017 4.87031 18.6751 6.1125C18.5813 6.10781 18.4829 6.10313 18.3845 6.10313H18.1079C16.9126 6.10313 15.7548 6.525 14.7563 7.32656C14.5829 7.4625 14.3767 7.5375 14.1563 7.5375C13.936 7.5375 13.7298 7.4625 13.5563 7.32656C12.5579 6.525 11.4001 6.10313 10.2048 6.10313H9.92822C8.69541 6.10313 7.54697 6.47813 6.59541 7.18125C5.71416 7.8375 5.04854 8.7375 4.66885 9.79688C4.60791 9.99844 4.54698 10.2 4.5001 10.4016ZM21.3798 15.2391C19.3642 16.9219 16.8001 17.85 14.1704 17.85C11.5407 17.85 8.97197 16.9219 6.95635 15.2391C5.12823 13.7156 5.04854 11.5969 5.57823 10.125C6.1126 8.64375 7.54229 7.06406 9.9376 7.06406H10.2142C11.1892 7.06406 12.1407 7.41563 12.9657 8.07656C13.3032 8.34844 13.7298 8.49844 14.161 8.49844C14.5923 8.49844 15.0188 8.34844 15.3563 8.07656C16.1813 7.41094 17.1329 7.06406 18.1079 7.06406H18.3845C20.7798 7.06406 22.2095 8.64844 22.7438 10.125C23.2876 11.5969 23.2079 13.7156 21.3798 15.2391Z"  />
  <path d="M15.6235 9.09849C15.4595 8.89224 15.1595 8.85943 14.9532 9.02349C14.7048 9.22037 14.4095 9.32818 14.0907 9.32818C13.772 9.32818 13.4767 9.22505 13.2282 9.02349C13.022 8.85943 12.722 8.89224 12.5579 9.09849C12.3939 9.30474 12.4267 9.60474 12.6329 9.7688C13.0454 10.1016 13.5657 10.2797 14.0954 10.2797C14.6251 10.2797 15.1454 10.0969 15.5579 9.7688C15.7595 9.60474 15.7923 9.30474 15.6235 9.09849Z"  />
  <path d="M19.3174 15.4453C19.1955 15.2109 18.9096 15.1172 18.6752 15.239C17.2736 15.9562 15.7596 16.3219 14.1705 16.3219C13.908 16.3219 13.6924 16.5375 13.6924 16.8C13.6924 17.0625 13.908 17.2781 14.1705 17.2781C15.9096 17.2781 17.5736 16.8797 19.1111 16.0875C19.3455 15.9703 19.4346 15.6797 19.3174 15.4453Z"  />
  <path d="M21.1689 14.0953C21.0002 13.8937 20.7002 13.8656 20.4939 14.0344C20.3814 14.1281 20.2689 14.2172 20.1564 14.3062C19.9455 14.4656 19.908 14.7656 20.0674 14.9765C20.1611 15.0984 20.3017 15.164 20.4471 15.164C20.5502 15.164 20.6486 15.1312 20.7377 15.0656C20.8643 14.9719 20.9861 14.8687 21.108 14.7703C21.3096 14.5969 21.3377 14.2969 21.1689 14.0953Z"  />
</symbol>

<symbol id="frame" viewBox="0 0 21 24">
  <g clip-path="url(#clip0)">
    <path d="M20.4822 10.1448L20.3037 9.43559L19.6462 9.97101C19.4114 9.31348 19.1624 8.91896 19.0497 8.75457L18.9229 8.5761L18.7022 8.55731C18.5566 8.54792 18.2372 8.53853 17.7769 8.59489L18.0681 7.70722L17.2556 7.90448C17.0301 7.96084 16.7812 8.03129 16.5135 8.12052C16.5135 8.12052 16.5135 8.12052 16.5135 8.11583C16.6168 2.76162 14.3624 0.385103 14.1041 0.13618C14.0994 0.131483 14.0947 0.131483 14.09 0.126786C14.0853 0.12209 14.0806 0.112696 14.0759 0.108C14.0431 0.0845163 14.0102 0.0704263 13.9726 0.0516396C13.9538 0.0422462 13.9397 0.0328529 13.9209 0.0234595C13.8599 0.00467284 13.7941 -0.0047205 13.7284 -2.38311e-05C13.7284 -2.38311e-05 13.7284 -2.38311e-05 13.7237 -2.38311e-05C13.3667 0.0375496 10.1213 0.483733 6.83366 4.75301C6.64579 5.03951 6.47202 5.34009 6.30763 5.64538C4.81409 4.57454 3.6728 4.30213 3.33933 4.24107C3.20313 4.21759 3.06223 4.25516 2.9589 4.3444C2.78982 4.49 1.78474 5.40585 0.990998 7.37375C0.981605 7.39724 0.972211 7.41602 0.962818 7.43951C0.493151 8.62776 0.0986301 10.1824 0 12.1784C0.0375734 13.3338 0.216047 14.5127 0.535421 15.6775C0.854795 16.8422 1.30098 17.946 1.87867 18.9933C3.22192 21.0129 4.44305 21.5154 5.43875 21.5154C6.03053 21.5154 6.54716 21.337 6.95577 21.1961C7.17182 21.1209 8.10646 20.8579 8.26145 20.825C8.72642 21.7691 9.52485 22.1589 10.1072 22.4407C10.3139 22.5393 11.3049 23.1076 11.4975 23.2297C11.9953 23.5585 12.6622 24 13.5875 24C14.4658 24 15.5742 23.6008 16.9879 22.3233C17.7816 21.4779 18.4861 20.5197 19.0826 19.4677C19.6791 18.4203 20.1487 17.3213 20.4775 16.1706C21.0411 13.4184 20.7922 11.3753 20.4822 10.1448ZM17.4528 9.59058C17.8755 9.50135 18.1996 9.48256 18.411 9.47786C18.5331 9.68921 18.7115 10.0556 18.8759 10.591L16.4947 12.5166L17.4528 9.59058ZM12.62 1.24929C12.2489 1.8035 11.8779 2.43285 11.4834 3.18902C11.3659 3.41446 11.4505 3.69626 11.6759 3.81837C11.7464 3.85594 11.8215 3.87003 11.892 3.87003C12.0611 3.87003 12.2207 3.7808 12.3053 3.62111C12.8313 2.62072 13.3057 1.85516 13.7941 1.20232C14.4282 2.03833 15.6587 4.17062 15.5836 8.05947C15.5695 8.20506 15.5507 8.35066 15.5272 8.49626C15.5131 8.50095 15.5037 8.50565 15.4896 8.51504C15.3675 8.5714 15.2407 8.62776 15.1092 8.69352C15.0247 8.73579 14.9401 8.77806 14.8556 8.82033C14.8086 8.84381 14.7569 8.87199 14.71 8.89547C14.2356 9.1491 13.7659 9.43559 13.2963 9.75966C13.2634 9.77845 13.2352 9.80193 13.2023 9.82542C13.0943 9.90056 12.9863 9.98041 12.8783 10.0603C12.8313 10.0931 12.789 10.126 12.7421 10.1636C12.6434 10.2387 12.5448 10.3139 12.4462 10.3937C12.3851 10.4454 12.3194 10.497 12.2536 10.5487C12.1691 10.6145 12.0892 10.6849 12.0047 10.7554C11.8544 10.8822 11.7041 11.0137 11.5538 11.1499C11.3566 11.3612 11.164 11.5773 10.9761 11.8027C10.591 12.2677 10.2294 12.7608 9.89589 13.2822C9.7456 13.517 9.6 13.7565 9.4591 14.0008C9.44031 14.0336 9.42153 14.0712 9.40274 14.1041C9.24305 14.3859 9.09746 14.6724 8.95656 14.9636C8.95186 14.9683 8.95186 14.9777 8.94716 14.9871L8.93777 15.0105C8.93307 15.0199 8.92838 15.0293 8.92368 15.0387C8.90959 15.0716 8.8908 15.1092 8.87671 15.142C9.24305 12.1456 9.91468 9.33227 10.8869 6.77258C10.9761 6.53305 10.8587 6.26534 10.6145 6.1714C10.375 6.08217 10.1025 6.19958 10.0133 6.44381C8.98943 9.15379 8.28493 12.1362 7.91859 15.3158C7.83405 15.2923 7.75421 15.2642 7.66497 15.2407C6.6411 14.9542 5.3636 14.6019 5.42466 11.4927C5.53268 10.4125 5.7816 9.32287 6.15734 8.25203C6.3546 7.68843 6.59883 7.12013 6.88063 6.55653C6.88063 6.55184 6.88063 6.55184 6.88532 6.54714C7.10607 6.11035 7.3409 5.68765 7.59452 5.29313C9.55303 2.75692 11.4364 1.69548 12.62 1.24929ZM7.97965 19.9327C7.80117 19.9749 6.96047 20.2098 6.65519 20.3178C5.6501 20.6653 4.40078 21.1021 2.6771 18.5143C2.15108 17.5655 1.73307 16.5276 1.43718 15.4332C1.13659 14.3389 0.967515 13.2352 0.934638 12.1878C1.02387 10.4501 1.34325 9.08804 1.73307 8.03129C2.43288 7.99841 3.13268 7.90448 3.809 7.7354C4.05793 7.67434 4.21292 7.42072 4.14716 7.1718C4.08611 6.92287 3.83249 6.76788 3.58356 6.82894C3.1092 6.94636 2.62544 7.0215 2.13699 7.06847C2.62544 6.06808 3.13738 5.4716 3.40039 5.20389C3.82309 5.31191 4.73425 5.62659 5.88493 6.47669C5.87084 6.50487 5.86145 6.53775 5.84736 6.56593C5.75342 6.76788 5.65949 6.97454 5.57495 7.18119C5.47162 7.43481 5.37299 7.68373 5.28845 7.93266C4.88924 9.06925 4.62622 10.234 4.50411 11.4223C4.42896 15.2876 6.30763 15.8137 7.42544 16.1237C7.64618 16.1847 8.30372 16.4665 8.31781 16.4665C8.3225 16.4665 8.33659 16.4665 8.33659 16.4665C8.3272 16.49 8.3225 16.5182 8.31311 16.5464C8.22388 16.7906 8.14873 17.0254 8.08297 17.2509C8.07828 17.2649 8.07828 17.2743 8.07358 17.2884C8.02192 17.5374 7.98434 17.7722 7.95616 17.9976C7.94677 18.0728 7.94207 18.1479 7.93268 18.2231C7.91859 18.3687 7.9045 18.519 7.89511 18.6552C7.89041 18.7303 7.89041 18.7961 7.89041 18.8712C7.88571 19.0121 7.89041 19.1483 7.89511 19.2798C7.8998 19.3315 7.8998 19.3831 7.9045 19.4301C7.91859 19.6039 7.93738 19.7636 7.96556 19.9139C7.97495 19.9186 7.97495 19.928 7.97965 19.9327ZM19.5804 15.9546C19.2798 16.9972 18.8431 18.0258 18.2795 19.0121C17.7205 19.9984 17.0583 20.9002 16.3444 21.661C14.0102 23.7698 12.9065 23.0419 12.0188 22.4548C11.7511 22.2763 10.807 21.7409 10.5205 21.6C9.95225 21.3229 9.30411 21.0035 8.99883 20.1581C8.99883 20.1487 8.99883 20.1393 8.99413 20.1346C8.76869 19.4865 8.76869 18.5988 8.98943 17.4998C9.04579 17.3025 9.11155 17.1006 9.182 16.9033C9.24305 16.7248 9.3135 16.537 9.39335 16.335C9.51546 16.0203 9.65166 15.7103 9.79256 15.4098C9.80196 15.3863 9.81605 15.3581 9.81605 15.3581C9.81605 15.3581 9.81605 15.3581 9.81605 15.3534C9.96164 15.0434 10.1166 14.7475 10.281 14.4563C10.4125 14.2262 10.5487 14.0008 10.6896 13.78C10.8352 13.5546 10.9855 13.3338 11.1405 13.1225L11.1452 13.1178C11.1452 13.1178 11.1452 13.1178 11.1452 13.1131C11.4834 12.6481 11.8403 12.2066 12.216 11.8074C12.4086 11.6336 12.6012 11.4693 12.789 11.3143C12.8454 11.2673 12.9018 11.225 12.9534 11.1781C13.0943 11.0653 13.2305 10.9573 13.3667 10.8587C13.4231 10.8164 13.4795 10.7741 13.5358 10.7319C13.6814 10.6285 13.8223 10.5252 13.9632 10.4313C14.0055 10.4031 14.0477 10.3749 14.09 10.3467C14.4611 10.1025 14.818 9.89117 15.1609 9.708C15.2313 9.67043 15.3018 9.63755 15.3675 9.60467C15.4661 9.55771 15.5648 9.50604 15.6587 9.45908C15.7761 9.40272 15.8935 9.35105 16.011 9.30409C16.2317 9.21015 16.4477 9.12561 16.645 9.05516L14.6254 15.2313L19.726 11.1029C19.9233 12.2536 19.9937 13.888 19.5804 15.9546Z"  />
    <path d="M13.5827 11.9389C13.4371 12.0235 10.0461 14.1135 9.83006 18.3311C9.81597 18.5894 10.0132 18.8055 10.2715 18.8196C10.2809 18.8196 10.2856 18.8196 10.295 18.8196C10.5392 18.8196 10.7459 18.627 10.76 18.3781C10.9479 14.6677 14.0289 12.7562 14.0617 12.7374C14.2825 12.6059 14.3529 12.3194 14.2214 12.0986C14.0899 11.8779 13.8034 11.8074 13.5827 11.9389Z"  />
  </g>
  <defs>
    <clipPath id="clip0">
    <rect width="20.8157" height="24"  />
  </clipPath>
  </defs>
</symbol>

<symbol id="milk" viewBox="0 0 32 20">
  <path d="M8.4812 5.44995C8.74008 5.44995 8.94995 5.24009 8.94995 4.9812C8.94995 4.72232 8.74008 4.51245 8.4812 4.51245C8.22232 4.51245 8.01245 4.72232 8.01245 4.9812C8.01245 5.24009 8.22232 5.44995 8.4812 5.44995Z"  />
  <path d="M11.4875 5.44995C11.7464 5.44995 11.9563 5.24009 11.9563 4.9812C11.9563 4.72232 11.7464 4.51245 11.4875 4.51245C11.2287 4.51245 11.0188 4.72232 11.0188 4.9812C11.0188 5.24009 11.2287 5.44995 11.4875 5.44995Z"  />
  <path d="M9.9812 7.4187C10.2401 7.4187 10.45 7.20884 10.45 6.94995C10.45 6.69107 10.2401 6.4812 9.9812 6.4812C9.72232 6.4812 9.51245 6.69107 9.51245 6.94995C9.51245 7.20884 9.72232 7.4187 9.9812 7.4187Z"  />
  <path d="M12.9875 7.4187C13.2464 7.4187 13.4563 7.20884 13.4563 6.94995C13.4563 6.69107 13.2464 6.4812 12.9875 6.4812C12.7287 6.4812 12.5188 6.69107 12.5188 6.94995C12.5188 7.20884 12.7287 7.4187 12.9875 7.4187Z"  />
  <path d="M3.9375 7.4187C4.19638 7.4187 4.40625 7.20884 4.40625 6.94995C4.40625 6.69107 4.19638 6.4812 3.9375 6.4812C3.67862 6.4812 3.46875 6.69107 3.46875 6.94995C3.46875 7.20884 3.67862 7.4187 3.9375 7.4187Z"  />
  <path d="M6.9751 7.4187C7.23398 7.4187 7.44385 7.20884 7.44385 6.94995C7.44385 6.69107 7.23398 6.4812 6.9751 6.4812C6.71621 6.4812 6.50635 6.69107 6.50635 6.94995C6.50635 7.20884 6.71621 7.4187 6.9751 7.4187Z"  />
  <path d="M9.9812 3.47498C10.2401 3.47498 10.45 3.26511 10.45 3.00623C10.45 2.74734 10.2401 2.53748 9.9812 2.53748C9.72232 2.53748 9.51245 2.74734 9.51245 3.00623C9.51245 3.26511 9.72232 3.47498 9.9812 3.47498Z"  />
  <path d="M6.9751 3.47498C7.23398 3.47498 7.44385 3.26511 7.44385 3.00623C7.44385 2.74734 7.23398 2.53748 6.9751 2.53748C6.71621 2.53748 6.50635 2.74734 6.50635 3.00623C6.50635 3.26511 6.71621 3.47498 6.9751 3.47498Z"  />
  <path d="M5.50635 5.44995C5.76523 5.44995 5.9751 5.24009 5.9751 4.9812C5.9751 4.72232 5.76523 4.51245 5.50635 4.51245C5.24746 4.51245 5.0376 4.72232 5.0376 4.9812C5.0376 5.24009 5.24746 5.44995 5.50635 5.44995Z"  />
  <path d="M30.525 8.01875H26.0563C25.7938 8.01875 25.5875 8.23125 25.5875 8.4875C25.5875 8.75 25.8 8.95625 26.0563 8.95625H30.525C30.8188 8.95625 31.0563 9.19375 31.0563 9.4875V9.64375C31.0563 9.90625 30.8688 10.125 30.6125 10.1687L16.4188 12.5312C16.1938 12.5688 16.025 12.7625 16.025 12.9937V15.5C16.025 17.45 14.4375 19.0375 12.4875 19.0375H4.46875C2.51875 19.0375 0.93125 17.45 0.93125 15.5V8.95625H23.7438C24.0063 8.95625 24.2125 8.74375 24.2125 8.4875C24.2125 8.225 24 8.01875 23.7438 8.01875H16.8063C16.5375 7.375 15.8375 5.80625 14.7438 4.2125C12.8563 1.45625 10.6875 0 8.48125 0C6.275 0 4.1 1.45625 2.20625 4.2125C0.8125 6.2375 0.05625 8.2375 0.025 8.31875V8.325C0.01875 8.3375 0.01875 8.35 0.0125 8.3625C0.0125 8.36875 0.0125 8.36875 0.00625 8.375C0 8.3875 0 8.4 0 8.41875C0 8.425 0 8.425 0 8.43125C0 8.45 0 8.46875 0 8.48125V15.5C0 17.9688 2.00625 19.975 4.475 19.975H12.4938C14.9625 19.975 16.9688 17.9688 16.9688 15.5V13.3938L30.7688 11.0938C31.4813 10.975 32 10.3625 32 9.64375V9.4875C31.9938 8.675 31.3313 8.01875 30.525 8.01875ZM8.48125 0.9375C12.3125 0.9375 14.9688 6.16875 15.7938 8.0125H1.16875C1.9875 6.16875 4.64375 0.9375 8.48125 0.9375Z"  />
</symbol>

<symbol id="oat" viewBox="0 0 17 24">
  <path d="M11.4701 14.3212C11.9297 15.0528 12.6565 15.4513 13.4349 15.4513C13.796 15.4513 14.1665 15.3669 14.5276 15.1887L15.925 14.6964L14.9918 13.5428C14.6026 12.9238 14.0164 12.5533 13.3787 12.4502C13.8664 12.4174 14.3494 12.2345 14.7667 11.8828L16.0047 11.0715L14.823 10.1758C14.5557 9.91325 14.2509 9.73974 13.932 9.62251C14.1993 9.42087 14.4291 9.15358 14.6073 8.83001L15.4654 7.62016L14.0399 7.21688C13.4818 6.98241 12.9097 6.96366 12.4033 7.12778C12.7644 6.83705 13.0457 6.43376 13.1958 5.93669L13.7913 4.58148L12.3142 4.47362C11.0715 4.23447 9.96014 4.90035 9.59437 6.1102L9.11606 7.19343C8.82063 6.8558 8.50176 6.54162 8.15475 6.25557L9.29895 5.64596C10.4807 5.19109 11.0621 4.03283 10.7292 2.8136L10.5135 1.34584L9.20516 2.03986C8.02345 2.49472 7.44197 3.65299 7.77491 4.8769L7.95311 6.08675C7.5592 5.78195 7.13716 5.51934 6.68699 5.28957L7.24502 4.27198C7.98593 3.24502 7.84056 1.95545 6.88863 1.11606L5.90856 0L5.19578 1.29894C4.45487 2.32591 4.60023 3.61547 5.55217 4.45486L6.0211 4.98007C5.91794 4.93787 5.81946 4.89566 5.71161 4.85815C5.52872 4.79719 5.34115 4.86753 5.23329 5.01758L4.46424 4.13599C3.75147 3.09027 2.49472 2.78077 1.37866 3.38101L0 3.92497L0.970692 5.04103C1.43963 5.73036 2.14302 6.10082 2.89332 6.10082C3.01993 6.10082 3.14654 6.08675 3.26846 6.06331C2.67292 6.29308 2.18523 6.7714 1.92732 7.44666L1.24267 8.76436L2.71043 8.966C2.93083 9.02227 3.15123 9.05041 3.36694 9.05041C3.74678 9.05041 4.10785 8.95662 4.42673 8.78781C4.3095 9.13482 4.26729 9.51934 4.32356 9.92263L4.36108 11.4045L5.74443 10.8746C5.85698 10.8464 5.96483 10.8042 6.068 10.762C6.03517 10.8746 6.00235 10.9918 5.98359 11.1137L5.58499 12.5393L7.06213 12.4408C7.08089 12.4408 7.09965 12.4361 7.11841 12.4408C6.88394 12.6518 6.67761 12.9097 6.52755 13.2239L5.73036 14.4713L7.17468 14.8042C7.34349 14.8652 7.51231 14.9027 7.68113 14.9261C7.06213 14.9777 6.47597 15.2778 6.03986 15.8265L4.98476 16.8675L6.32122 17.51C6.73857 17.7773 7.18875 17.9086 7.62485 17.9086C8.3095 17.9086 8.97069 17.5944 9.45369 16.9894L9.50997 16.9332C8.19226 20.1172 5.35522 22.4525 1.61782 23.1653C1.38804 23.2075 1.23798 23.4326 1.28019 23.6577C1.3177 23.8593 1.4959 24 1.69285 24C1.72098 24 1.74443 23.9953 1.77257 23.9906C5.57562 23.2638 8.51114 20.9801 10.0258 17.8429L9.96952 19.0856C9.7585 20.3329 10.4572 21.4256 11.6811 21.7632L13.0551 22.3212L13.1254 20.8394C13.3365 19.592 12.6377 18.4994 11.4138 18.1618L10.1336 17.6366C10.3634 17.1301 10.551 16.6049 10.7104 16.061L10.8886 16.6893C11.0856 17.9367 12.0938 18.7573 13.3599 18.687L14.837 18.7855L14.4338 17.3599C14.2368 16.1079 13.2192 15.2919 11.9625 15.3623L10.9027 15.2919C11.0012 14.8277 11.0762 14.354 11.1184 13.871L11.4701 14.3212ZM9.52872 2.80891L9.85698 2.64009L9.90387 2.94959L9.91325 3.00117C10.143 3.81243 9.76788 4.55803 8.98007 4.85346L8.65182 5.02227L8.60492 4.71278L8.59555 4.6612C8.36108 3.84994 8.73623 3.10434 9.52872 2.80891ZM5.8898 1.77257L6.07269 1.449L6.28371 1.68347L6.32122 1.72098C6.95897 2.27433 7.05276 3.09965 6.551 3.7796L6.36811 4.10317L6.16178 3.8687L6.12427 3.83118C5.48652 3.28253 5.39273 2.45252 5.8898 1.77257ZM10.8136 19.2169L10.8324 18.8511L11.1231 18.9683L11.1747 18.9871C11.9906 19.2028 12.4408 19.9015 12.2907 20.7362L12.272 21.102L11.9812 20.9848L11.9297 20.966C11.1137 20.7503 10.6635 20.0469 10.8136 19.2169ZM11.9672 16.2204H11.9953C12.8347 16.1594 13.4865 16.6893 13.6084 17.524L13.7069 17.8804L13.3646 17.857H13.3365C12.5018 17.9179 11.8453 17.388 11.7233 16.5533L11.6249 16.197L11.9672 16.2204ZM11.1653 12.9472C11.1653 12.8253 11.1747 12.7081 11.1747 12.5862C11.17 12.1735 11.1278 11.7655 11.0668 11.3669L11.5967 11.7702C11.9672 12.1313 12.4033 12.347 12.8581 12.422C12.5533 12.4455 12.2438 12.5252 11.9437 12.6753L11.1653 12.9472ZM10.5744 9.58499L11.6108 9.88042C11.6764 9.90856 11.7421 9.932 11.803 9.95076C11.7515 9.98828 11.6999 10.0164 11.6483 10.0586L10.8886 10.5557C10.8089 10.2227 10.7011 9.89918 10.5744 9.58499ZM14.2884 14.007L14.5182 14.2978L14.2227 14.4009L14.1712 14.4244C13.4209 14.8042 12.619 14.5791 12.1782 13.8617L11.9484 13.5709L12.2438 13.4678L12.2954 13.4443C13.0457 13.0598 13.8476 13.2849 14.2884 14.007ZM14.5463 11.0152L14.2837 11.1887L14.2415 11.2216C13.5991 11.7749 12.7691 11.7421 12.1688 11.1512L11.8781 10.9261L12.1407 10.7526L12.1829 10.7198C12.8206 10.1665 13.6553 10.1993 14.2556 10.7902L14.5463 11.0152ZM13.7304 7.99531L14.0821 8.09848L13.8992 8.35639L13.871 8.40328C13.4771 9.14889 12.6893 9.42556 11.9156 9.09261L11.5639 8.98945L11.7468 8.73154L11.7749 8.68464C12.1735 7.93904 12.9566 7.66237 13.7304 7.99531ZM10.3775 6.41501L10.3962 6.36342C10.6307 5.55217 11.3435 5.12075 12.1735 5.29426L12.5393 5.32239L12.4127 5.60844L12.3939 5.66002C12.1594 6.47128 11.442 6.89801 10.6166 6.72919L10.2509 6.70105L10.3775 6.41501ZM10.476 7.56389C10.6448 7.59672 10.8136 7.61547 10.9777 7.61547C11.2263 7.61547 11.4607 7.57796 11.6858 7.50762C11.4326 7.70457 11.2122 7.9578 11.0434 8.26729L10.3962 9.17702C10.1196 8.5721 9.77257 8 9.3646 7.48417L10.476 7.56389ZM9.39273 9.05041L8.45487 9.11137C8.09379 9.09261 7.75616 9.15357 7.44666 9.27081C7.53576 8.95193 7.56858 8.60492 7.517 8.23916L7.47948 6.78077C8.26729 7.39977 8.91442 8.1735 9.39273 9.05041ZM1.66002 4.55334L1.42087 4.27198L1.71161 4.15944L1.76319 4.13599C2.49941 3.72802 3.31067 3.92497 3.77491 4.62837L4.01407 4.90973L3.72333 5.02227L3.67175 5.04572C2.93552 5.45369 2.12427 5.25205 1.66002 4.55334ZM4.05627 5.79601L5.16764 5.35991C5.20047 5.49121 5.29426 5.60844 5.43025 5.65533C6.17585 5.91325 6.8558 6.29308 7.46073 6.76671L6.09613 7.28722C5.8898 7.3388 5.70692 7.41852 5.53341 7.50762L6.21805 6.18992L4.75029 5.98828C4.40328 5.89918 4.07034 5.88511 3.75147 5.93669C3.85463 5.89449 3.9578 5.85229 4.05627 5.79601ZM2.91208 8.14537L2.54631 8.0891L2.69168 7.81243L2.71512 7.76084C3.00117 6.96835 3.74209 6.58382 4.55803 6.80891L4.9238 6.86518L4.77843 7.14185L4.75498 7.19343C4.46424 7.98593 3.72333 8.37046 2.91208 8.14537ZM5.52872 10.0633L5.18171 10.1899L5.17233 9.87573L5.16764 9.81946C5.03634 8.98476 5.50059 8.29543 6.32122 8.09848L6.66823 7.97186L6.67761 8.28605L6.6823 8.34232C6.8136 9.17702 6.34936 9.86635 5.52872 10.0633ZM7.06682 11.5967L6.7245 11.6202L6.80891 11.32L6.81829 11.2638C6.93552 10.4666 7.52638 9.95545 8.3095 9.95545C8.34701 9.95545 8.38453 9.95545 8.42673 9.96014H8.45487L8.79719 9.93669L8.71278 10.2368L8.7034 10.2931C8.58148 11.1278 7.94373 11.653 7.09496 11.6014L7.06682 11.5967ZM9.53341 10.4431L9.73036 9.74443C10.0539 10.5135 10.2509 11.3482 10.3072 12.2157L9.46776 12.0234C9.22861 11.939 8.98945 11.8968 8.75498 11.8828C9.16295 11.5311 9.44431 11.0387 9.53341 10.4431ZM7.09027 13.9226L7.25909 13.66L7.28722 13.6131C7.64361 12.8488 8.41735 12.5346 9.20516 12.83L9.56624 12.9144L9.39742 13.177L9.36929 13.2239C9.0129 13.9883 8.23916 14.3072 7.45135 14.007L7.09027 13.9226ZM8.84408 16.4174L8.80657 16.4596C8.29074 17.1254 7.46542 17.2614 6.76202 16.8019L6.43376 16.6377L6.65885 16.4174L6.69637 16.3751C7.21219 15.7093 8.03283 15.5733 8.74091 16.0328L9.06917 16.197L8.84408 16.4174ZM9.17702 15.3107C8.87222 15.1137 8.54396 15.0012 8.2204 14.9496C9.02227 14.8839 9.73505 14.4103 10.1196 13.6038L10.3118 13.3036C10.2743 14.129 10.1524 14.9215 9.94607 15.6811L9.17702 15.3107Z"  />
</symbol>

<symbol id="seaweed" viewBox="0 0 32 32">
  <path d="M21.625 5C21.3672 5 21.1562 5.21094 21.1562 5.46875C21.1562 5.72656 21.3672 5.9375 21.625 5.9375C21.8828 5.9375 22.0938 5.72656 22.0938 5.46875C22.0938 5.21094 21.8828 5 21.625 5Z"  />
  <path d="M27.5312 26.5625H24.8922C24.9906 26.3891 25.0469 26.1922 25.0469 25.9813V24.8844C25.0469 24.7156 25.1687 24.5984 25.3422 24.5984H26.7531C27.4422 24.5984 28 24.0313 28 23.3328C28 21.9969 27.4797 20.7453 26.5375 19.7984C25.7453 19.0063 24.4094 19.5828 24.4094 20.6797C24.4094 20.8484 24.2734 20.9891 24.1 20.9891H22.6891C22.5344 20.9891 22.3844 21.0172 22.2438 21.0734L22.0984 20.675C22.0422 20.5156 22.1219 20.3375 22.2812 20.2813L23.3125 19.9063C23.9594 19.6719 24.2922 18.9547 24.0578 18.3078L23.6828 17.2766C23.6266 17.1172 23.7062 16.9391 23.8656 16.8828C24.9109 16.5031 24.9719 15.0547 23.9641 14.5812C22.7547 14.0187 21.4 13.9578 20.1437 14.4125C19.4969 14.6469 19.1641 15.3641 19.3984 16.0109L19.7734 17.0422C19.8297 17.2016 19.75 17.3797 19.5906 17.4359L18.9531 17.6656C18.9578 17.3422 18.8359 17.0188 18.5875 16.775L17.8094 15.9969C17.6875 15.875 17.6875 15.6828 17.8094 15.5609L18.5875 14.7828C19.075 14.2953 19.075 13.5078 18.5875 13.0203C17.65 12.0828 16.3984 11.5625 15.0625 11.5625C13.9422 11.5625 13.4031 12.9125 14.1812 13.6906C14.3031 13.8125 14.3031 14.0047 14.1812 14.1266L13.4031 14.9047C12.9156 15.3922 12.9156 16.1797 13.4031 16.6672L14.1812 17.4453C14.3031 17.5672 14.3031 17.7594 14.1812 17.8812L13.8906 18.1719C13.7547 18.0172 13.5813 17.8953 13.3797 17.8203L12.3484 17.4453C12.2688 17.4172 12.2078 17.3609 12.175 17.2859C12.1422 17.2109 12.1375 17.1266 12.1656 17.0516L12.5406 16.0203C12.775 15.3734 12.4422 14.6609 11.7953 14.4219C10.5438 13.9672 9.18438 14.0234 7.975 14.5906C6.97188 15.0594 7.03281 16.5078 8.07344 16.8875C8.23281 16.9438 8.31719 17.1219 8.25625 17.2813L7.88125 18.3125C7.64688 18.9594 7.97969 19.6719 8.62656 19.9109L9.65781 20.2859C9.81719 20.3422 9.90156 20.5203 9.84062 20.6797L9.69531 21.0734C9.55469 21.0172 9.4 20.9891 9.25 20.9891H7.89062C7.72187 20.9891 7.58125 20.8531 7.58125 20.6797C7.58125 19.5828 6.24531 19.0063 5.45312 19.7984C4.53437 20.7266 4 22.0203 4 23.3469C4 24.0359 4.55781 24.5938 5.24688 24.5938H6.60625C6.77969 24.5938 6.90625 24.7156 6.90625 24.8797V25.9766C6.90625 26.1875 6.95781 26.3844 7.05156 26.5578H4.46875C4.21094 26.5578 4 26.7688 4 27.0266C4 27.2844 4.21094 27.4953 4.46875 27.4953C5.36875 27.4953 26.2375 27.4953 27.5312 27.4953C27.7891 27.4953 28 27.2844 28 27.0266C28 26.7688 27.7891 26.5625 27.5312 26.5625ZM10.0375 26.5625C9.81719 26.3797 9.54063 26.2813 9.25469 26.2813H8.15781C7.98437 26.2813 7.84375 26.1453 7.84375 25.9813V24.8844C7.84375 24.1953 7.3 23.6609 6.60625 23.6609H5.24688C5.07812 23.6609 4.9375 23.525 4.9375 23.3516C4.9375 22.2688 5.36875 21.2188 6.12813 20.4641C6.32031 20.2719 6.65312 20.4078 6.65312 20.6797C6.65312 21.3688 7.21094 21.9266 7.9 21.9266L9.25937 21.9219C9.35312 21.9219 9.44219 21.9688 9.50313 22.0391C9.51719 22.0719 9.53594 22.1047 9.55937 22.1328C9.57344 22.1656 9.57812 22.2031 9.57812 22.2406V23.3281C9.57812 24.0266 10.1313 24.5938 10.8109 24.5938H11.9078C12.0766 24.5938 12.2031 24.7156 12.2031 24.8797V25.9766C12.2031 26.1875 12.2547 26.3844 12.3531 26.5578H10.0375V26.5625ZM14.5609 26.2813H13.4641C13.2906 26.2813 13.1453 26.1453 13.1453 25.9813V24.8844C13.1453 24.1953 12.6062 23.6609 11.9125 23.6609H10.8156C10.6562 23.6609 10.5203 23.5109 10.5203 23.3328V22.2359C10.5203 22.0859 10.4922 21.9406 10.4406 21.8047L10.7313 21.0031C10.9656 20.3563 10.6328 19.6438 9.98594 19.4047L8.95469 19.0297C8.79531 18.9734 8.71094 18.7953 8.77188 18.6359L9.14688 17.6047C9.38125 16.9578 9.04844 16.2453 8.40156 16.0063C8.14375 15.9125 8.125 15.5563 8.37813 15.4391C9.3625 14.9797 10.4641 14.9328 11.4813 15.3031C11.6406 15.3594 11.725 15.5375 11.6641 15.6969L11.2891 16.7281C11.1766 17.0422 11.1906 17.3797 11.3312 17.6797C11.4719 17.9797 11.7203 18.2094 12.0344 18.3219L13.0656 18.6969C13.1453 18.725 13.2063 18.7859 13.2437 18.8609C12.9344 19.3438 12.9906 19.9953 13.4125 20.4125L14.1906 21.1906C14.3125 21.3125 14.3125 21.5047 14.1906 21.6266L13.4125 22.4047C12.925 22.8922 12.925 23.6797 13.4125 24.1672L14.6406 25.3953C14.5562 25.6578 14.5563 25.9391 14.6547 26.2109L14.6828 26.2906C14.6406 26.2859 14.5984 26.2813 14.5609 26.2813ZM15.2453 24.6734L14.0688 23.4969C13.9469 23.375 13.9469 23.1828 14.0688 23.0609L14.8469 22.2828C15.3344 21.7953 15.3344 21.0078 14.8469 20.5203L14.0688 19.7422C13.9469 19.6203 13.9469 19.4281 14.0688 19.3063L14.8469 18.5281C15.3344 18.0406 15.3344 17.2531 14.8469 16.7656C14.1344 16.0156 13.9797 15.9922 13.9797 15.7719C13.9797 15.6875 14.0125 15.6125 14.0688 15.5563L14.8469 14.7781C15.3344 14.2906 15.3344 13.5031 14.8469 13.0156C14.6547 12.8234 14.7906 12.4906 15.0625 12.4906C16.1453 12.4906 17.1672 12.9125 17.9313 13.6813C18.0531 13.8031 18.0531 13.9953 17.9313 14.1172L17.1531 14.8953C16.6656 15.3828 16.6656 16.1703 17.1531 16.6578L17.9313 17.4359C18.0531 17.5578 18.0531 17.75 17.9313 17.8719L17.1531 18.65C16.6656 19.1375 16.6656 19.925 17.1531 20.4125L17.6922 20.9516L16.975 21.2141C16.6609 21.3266 16.4125 21.5563 16.2719 21.8563C16.1312 22.1563 16.1172 22.4938 16.2297 22.8078L16.6047 23.8391C16.6609 23.9984 16.5813 24.1766 16.4219 24.2328L15.3906 24.6078C15.3438 24.6266 15.2922 24.65 15.2453 24.6734ZM18.0156 19.9438L17.8187 19.7469C17.7062 19.6344 17.6969 19.4563 17.7953 19.3344C17.8187 19.4094 17.8141 19.3906 18.0156 19.9438ZM19.6328 24.3922L20.0078 25.4234C20.0641 25.5828 19.9844 25.7609 19.825 25.8172L18.7938 26.1922C18.5875 26.2672 18.4094 26.3938 18.2687 26.5625H15.7797L15.5312 25.8828C15.475 25.7234 15.5547 25.5453 15.7141 25.4891L16.7453 25.1141C17.3922 24.8797 17.725 24.1625 17.4906 23.5156L17.1156 22.4844C17.0875 22.4094 17.0922 22.325 17.125 22.25C17.1578 22.175 17.2234 22.1188 17.2984 22.0906L18.3297 21.7156C18.4891 21.6594 18.6297 21.5703 18.7516 21.4578L18.7562 21.4531C18.7609 21.4484 18.7656 21.4438 18.7703 21.4391C19.1219 21.0969 19.2438 20.5813 19.075 20.1219L18.7 19.0906C18.6438 18.9313 18.7234 18.7531 18.8828 18.6969L19.9141 18.3219C20.5609 18.0875 20.8937 17.375 20.6594 16.7234L20.2844 15.6922C20.2281 15.5328 20.3078 15.3547 20.4672 15.2984C21.4844 14.9281 22.5859 14.975 23.5703 15.4344C23.8188 15.5516 23.8047 15.9078 23.5469 16.0016C22.9 16.2359 22.5672 16.9484 22.8016 17.5953L23.1766 18.6266C23.2328 18.7859 23.1531 18.9641 22.9938 19.0203L21.9625 19.3953C21.3156 19.6297 20.9828 20.3469 21.2172 20.9938L21.5453 21.8891C21.55 21.9594 21.5734 22.0297 21.6109 22.0906C21.6297 22.2313 21.55 22.3672 21.4094 22.4188L20.3781 22.7938C19.7312 23.0328 19.3984 23.7453 19.6328 24.3922ZM24.1094 24.8797V25.9766C24.1094 26.15 23.9406 26.2297 23.7859 26.2297H22.6891C22.4125 26.2297 22.1359 26.3469 21.9016 26.5578H20.4156C20.875 26.2484 21.0906 25.6531 20.8891 25.1L20.5141 24.0688C20.4578 23.9094 20.5375 23.7313 20.6969 23.675L21.7281 23.3C22.3 23.0938 22.6141 22.5172 22.5344 21.9594C22.5812 21.9359 22.6328 21.9172 22.6844 21.9172H24.0953C24.7844 21.9172 25.3422 21.3641 25.3422 20.675C25.3422 20.3984 25.675 20.2625 25.8672 20.4594C26.6406 21.2234 27.0625 22.2453 27.0625 23.3281C27.0625 23.5016 26.9172 23.6563 26.7531 23.6563H25.3422C24.6484 23.6563 24.1094 24.1953 24.1094 24.8797Z"  />
  <path d="M18.3438 5.9375C17.3078 5.9375 16.4688 6.77656 16.4688 7.8125C16.4688 8.84844 17.3078 9.6875 18.3438 9.6875C19.3797 9.6875 20.2188 8.84844 20.2188 7.8125C20.2188 6.77656 19.3797 5.9375 18.3438 5.9375ZM18.3438 8.75C17.8281 8.75 17.4062 8.32812 17.4062 7.8125C17.4062 7.29688 17.8281 6.875 18.3438 6.875C18.8594 6.875 19.2812 7.29688 19.2812 7.8125C19.2812 8.32812 18.8594 8.75 18.3438 8.75Z"  />
  <path d="M20.6875 10.625C19.9141 10.625 19.2812 11.2578 19.2812 12.0312C19.2812 12.8047 19.9141 13.4375 20.6875 13.4375C21.4609 13.4375 22.0938 12.8047 22.0938 12.0312C22.0938 11.2578 21.4609 10.625 20.6875 10.625ZM20.6875 12.5C20.4297 12.5 20.2188 12.2891 20.2188 12.0312C20.2188 11.7734 20.4297 11.5625 20.6875 11.5625C20.9453 11.5625 21.1562 11.7734 21.1562 12.0312C21.1562 12.2891 20.9453 12.5 20.6875 12.5Z"  />
</symbol>


<symbol id="btn-play" viewBox="0 0 300 300">
<path d="M196.1 139.6l-91-72.5c-8.7-6.9-21.5-.7-21.5 10.4v145c0 11.1 12.8 17.3 21.5 10.4l91-72.5c6.7-5.3 6.7-15.5 0-20.8z"/>
</symbol>

<symbol id="btn-volume" viewBox="0 0 300 300" >
<path d="m178.5 59.2-66.4 52.8c-4.8-2.6-10.3-4-16.1-4-18.8 0-34 15.2-34 34s15.2 34 34 34c5.8 0 11.3-1.5 16.1-4l66.4 52.9c8.7 6.9 21.5.7 21.5-10.4v-145c0-11.1-12.8-17.3-21.5-10.3z"/>
</symbol>

<symbol id="btn-pause" viewBox="0 0 438.536 438.536" >
		<path d="M164.453,0H18.276C13.324,0,9.041,1.807,5.425,5.424C1.808,9.04,0.001,13.322,0.001,18.271v401.991
			c0,4.948,1.807,9.233,5.424,12.847c3.619,3.617,7.902,5.428,12.851,5.428h146.181c4.949,0,9.231-1.811,12.847-5.428
			c3.617-3.613,5.424-7.898,5.424-12.847V18.271c0-4.952-1.807-9.231-5.428-12.847C173.685,1.807,169.402,0,164.453,0z"/>
		<path d="M433.113,5.424C429.496,1.807,425.215,0,420.267,0H274.086c-4.949,0-9.237,1.807-12.847,5.424
			c-3.621,3.615-5.432,7.898-5.432,12.847v401.991c0,4.948,1.811,9.233,5.432,12.847c3.609,3.617,7.897,5.428,12.847,5.428h146.181
			c4.948,0,9.229-1.811,12.847-5.428c3.614-3.613,5.421-7.898,5.421-12.847V18.271C438.534,13.319,436.73,9.04,433.113,5.424z"/>
</symbol>
</svg>
